<mxfile host="app.diagrams.net" modified="2023-04-19T18:51:14.049Z" agent="Mozilla/5.0 (X11; Linux x86_64) AppleWebKit/537.36 (KHTML, like Gecko) Chrome/112.0.0.0 Safari/537.36" etag="S2S1_deoAWUdvrRcnM4i" version="21.2.0" type="device">
  <diagram name="Page-1" id="Hmpx-PjTfIGw3u0_Jpg2">
    <mxGraphModel dx="1120" dy="460" grid="1" gridSize="10" guides="1" tooltips="1" connect="1" arrows="1" fold="1" page="1" pageScale="1" pageWidth="850" pageHeight="1100" math="0" shadow="0">
      <root>
        <mxCell id="0" />
        <mxCell id="1" parent="0" />
        <mxCell id="xk9ZMzFindOeEumncWzH-1" value="" style="shape=image;verticalLabelPosition=bottom;labelBackgroundColor=default;verticalAlign=top;aspect=fixed;imageAspect=0;image=data:image/jpeg,/9j/4AAQSkZJRgABAQEAYABgAAD/4REcRXhpZgAATU0AKgAAAAgABAE7AAIAAAAbAAAISodpAAQAAAABAAAIZpydAAEAAAA2AAAQ3uocAAcAAAgMAAAAPgAAAAAc6gAAAAgAAAAAAAAAAAAAAAAAAAAAAAAAAAAAAAAAAAAAAAAAAAAAAAAAAAAAAAAAAAAAAAAAAAAAAAAAAAAAAAAAAAAAAAAAAAAAAAAAAAAAAAAAAAAAAAAAAAAAAAAAAAAAAAAAAAAAAAAAAAAAAAAAAAAAAAAAAAAAAAAAAAAAAAAAAAAAAAAAAAAAAAAAAAAAAAAAAAAAAAAAAAAAAAAAAAAAAAAAAAAAAAAAAAAAAAAAAAAAAAAAAAAAAAAAAAAAAAAAAAAAAAAAAAAAAAAAAAAAAAAAAAAAAAAAAAAAAAAAAAAAAAAAAAAAAAAAAAAAAAAAAAAAAAAAAAAAAAAAAAAAAAAAAAAAAAAAAAAAAAAAAAAAAAAAAAAAAAAAAAAAAAAAAAAAAAAAAAAAAAAAAAAAAAAAAAAAAAAAAAAAAAAAAAAAAAAAAAAAAAAAAAAAAAAAAAAAAAAAAAAAAAAAAAAAAAAAAAAAAAAAAAAAAAAAAAAAAAAAAAAAAAAAAAAAAAAAAAAAAAAAAAAAAAAAAAAAAAAAAAAAAAAAAAAAAAAAAAAAAAAAAAAAAAAAAAAAAAAAAAAAAAAAAAAAAAAAAAAAAAAAAAAAAAAAAAAAAAAAAAAAAAAAAAAAAAAAAAAAAAAAAAAAAAAAAAAAAAAAAAAAAAAAAAAAAAAAAAAAAAAAAAAAAAAAAAAAAAAAAAAAAAAAAAAAAAAAAAAAAAAAAAAAAAAAAAAAAAAAAAAAAAAAAAAAAAAAAAAAAAAAAAAAAAAAAAAAAAAAAAAAAAAAAAAAAAAAAAAAAAAAAAAAAAAAAAAAAAAAAAAAAAAAAAAAAAAAAAAAAAAAAAAAAAAAAAAAAAAAAAAAAAAAAAAAAAAAAAAAAAAAAAAAAAAAAAAAAAAAAAAAAAAAAAAAAAAAAAAAAAAAAAAAAAAAAAAAAAAAAAAAAAAAAAAAAAAAAAAAAAAAAAAAAAAAAAAAAAAAAAAAAAAAAAAAAAAAAAAAAAAAAAAAAAAAAAAAAAAAAAAAAAAAAAAAAAAAAAAAAAAAAAAAAAAAAAAAAAAAAAAAAAAAAAAAAAAAAAAAAAAAAAAAAAAAAAAAAAAAAAAAAAAAAAAAAAAAAAAAAAAAAAAAAAAAAAAAAAAAAAAAAAAAAAAAAAAAAAAAAAAAAAAAAAAAAAAAAAAAAAAAAAAAAAAAAAAAAAAAAAAAAAAAAAAAAAAAAAAAAAAAAAAAAAAAAAAAAAAAAAAAAAAAAAAAAAAAAAAAAAAAAAAAAAAAAAAAAAAAAAAAAAAAAAAAAAAAAAAAAAAAAAAAAAAAAAAAAAAAAAAAAAAAAAAAAAAAAAAAAAAAAAAAAAAAAAAAAAAAAAAAAAAAAAAAAAAAAAAAAAAAAAAAAAAAAAAAAAAAAAAAAAAAAAAAAAAAAAAAAAAAAAAAAAAAAAAAAAAAAAAAAAAAAAAAAAAAAAAAAAAAAAAAAAAAAAAAAAAAAAAAAAAAAAAAAAAAAAAAAAAAAAAAAAAAAAAAAAAAAAAAAAAAAAAAAAAAAAAAAAAAAAAAAAAAAAAAAAAAAAAAAAAAAAAAAAAAAAAAAAAAAAAAAAAAAAAAAAAAAAAAAAAAAAAAAAAAAAAAAAAAAAAAAAAAAAAAAAAAAAAAAAAAAAAAAAAAAAAAAAAAAAAAAAAAAAAAAAAAAAAAAAAAAAAAAAAAAAAAAAAAAAAAAAAAAAAAAAAAAAAAAAAAAAAAAAAAAAAAAAAAAAAAAAAAAAAAAAAAAAAAAAAAAAAAAAAAAAAAAAAAAAAAAAAAAAAAAAAAAAAAAAAAAAAAAAAAAAAAAAAAAAAAAAAAAAAAAAAAAAAAAAAAAAAAAAAAAAAAAAAAAAAAAAAAAAAAAAAAAAAAAAAAAAAAAAAAAAAAAAAAAAAAAAAAAAAAAAAAAAAAAAAAAAAAAAAAAAAAAAAAAAAAAAAAAAAAAAAAAAAAAAAAAAAAAAAAAAAAAAAAAAAAAAAAAAAAAAAAAAAAAAAAAAAAAAAAAAAAAAAAAAAAAAAAAAAAAAAAAAAAAAAAAAAAAAAAAAAAAAAAAAAAAAAAAAAAAAAAAAAAAAAAAAAAAAAAAAAAAAAAAAAAAAAAAAAAAAAAAAAAAAAAAAAAAAAAAAAAAAAAAAAAAAAAAAAAAAAAAAAAAAAAAAAAAAAAAAAAAAAAAAAAAAAAAAAAAAAAAAAAAAAAAAAAAAAAAAAAAAAAAAAAAAAAAAAAAAAAAAAAAAAAAAAAAAAAAAAAAAAAAAAAAAAAAAAAAAAAAAAAAAAAAAAAAAAAAAAAAAAAAAAAAAAAAAAAAAAAAAAAAAAAAAAAAAAAAAAAAAAAAAAAAAAAAAAAAAAAAAAAAAAAAAAAAAAAAAAAAAAAAAAAAAAAAAAAAAAAAAAAAAAAAAAAAAAAAAAAAAAAAAAAAAAAAAAAAAAAAAAAAAAAAAAAAAAAAAAAAAAAAAAAAAAAAAAAAAAAAAAAAAAAAAAAAAAAAAAAAAAAAAAAAAAAAAAAAAAAAAAAAAAAAAAAAAAAAAAAAAAAAAAAAAAAAAAAAAAAAAAAAAAAAAAAAAAAAAAAAAAAAAAAAAAAAAAAAAAAAAAAAAAAAAAAAAAAAAAAAAAAAAAAAAAAAAAAAAAAAAAAAAAAAAAAAAAAAAAAAAAAAAAAAAAAAAAAAAAAAAAAAAAAAAAAAAAAAAAAAAAAAAAAAAAAAAAAAAAAAAAAAAAAAAAAAAAAAAAAAFJFTkFUTyBGRVJSRUlSQSBET1MgU0FOVE9TAAAABZADAAIAAAAUAAAQtJAEAAIAAAAUAAAQyJKRAAIAAAADNTYAAJKSAAIAAAADNTYAAOocAAcAAAgMAAAIqAAAAAAc6gAAAAgAAAAAAAAAAAAAAAAAAAAAAAAAAAAAAAAAAAAAAAAAAAAAAAAAAAAAAAAAAAAAAAAAAAAAAAAAAAAAAAAAAAAAAAAAAAAAAAAAAAAAAAAAAAAAAAAAAAAAAAAAAAAAAAAAAAAAAAAAAAAAAAAAAAAAAAAAAAAAAAAAAAAAAAAAAAAAAAAAAAAAAAAAAAAAAAAAAAAAAAAAAAAAAAAAAAAAAAAAAAAAAAAAAAAAAAAAAAAAAAAAAAAAAAAAAAAAAAAAAAAAAAAAAAAAAAAAAAAAAAAAAAAAAAAAAAAAAAAAAAAAAAAAAAAAAAAAAAAAAAAAAAAAAAAAAAAAAAAAAAAAAAAAAAAAAAAAAAAAAAAAAAAAAAAAAAAAAAAAAAAAAAAAAAAAAAAAAAAAAAAAAAAAAAAAAAAAAAAAAAAAAAAAAAAAAAAAAAAAAAAAAAAAAAAAAAAAAAAAAAAAAAAAAAAAAAAAAAAAAAAAAAAAAAAAAAAAAAAAAAAAAAAAAAAAAAAAAAAAAAAAAAAAAAAAAAAAAAAAAAAAAAAAAAAAAAAAAAAAAAAAAAAAAAAAAAAAAAAAAAAAAAAAAAAAAAAAAAAAAAAAAAAAAAAAAAAAAAAAAAAAAAAAAAAAAAAAAAAAAAAAAAAAAAAAAAAAAAAAAAAAAAAAAAAAAAAAAAAAAAAAAAAAAAAAAAAAAAAAAAAAAAAAAAAAAAAAAAAAAAAAAAAAAAAAAAAAAAAAAAAAAAAAAAAAAAAAAAAAAAAAAAAAAAAAAAAAAAAAAAAAAAAAAAAAAAAAAAAAAAAAAAAAAAAAAAAAAAAAAAAAAAAAAAAAAAAAAAAAAAAAAAAAAAAAAAAAAAAAAAAAAAAAAAAAAAAAAAAAAAAAAAAAAAAAAAAAAAAAAAAAAAAAAAAAAAAAAAAAAAAAAAAAAAAAAAAAAAAAAAAAAAAAAAAAAAAAAAAAAAAAAAAAAAAAAAAAAAAAAAAAAAAAAAAAAAAAAAAAAAAAAAAAAAAAAAAAAAAAAAAAAAAAAAAAAAAAAAAAAAAAAAAAAAAAAAAAAAAAAAAAAAAAAAAAAAAAAAAAAAAAAAAAAAAAAAAAAAAAAAAAAAAAAAAAAAAAAAAAAAAAAAAAAAAAAAAAAAAAAAAAAAAAAAAAAAAAAAAAAAAAAAAAAAAAAAAAAAAAAAAAAAAAAAAAAAAAAAAAAAAAAAAAAAAAAAAAAAAAAAAAAAAAAAAAAAAAAAAAAAAAAAAAAAAAAAAAAAAAAAAAAAAAAAAAAAAAAAAAAAAAAAAAAAAAAAAAAAAAAAAAAAAAAAAAAAAAAAAAAAAAAAAAAAAAAAAAAAAAAAAAAAAAAAAAAAAAAAAAAAAAAAAAAAAAAAAAAAAAAAAAAAAAAAAAAAAAAAAAAAAAAAAAAAAAAAAAAAAAAAAAAAAAAAAAAAAAAAAAAAAAAAAAAAAAAAAAAAAAAAAAAAAAAAAAAAAAAAAAAAAAAAAAAAAAAAAAAAAAAAAAAAAAAAAAAAAAAAAAAAAAAAAAAAAAAAAAAAAAAAAAAAAAAAAAAAAAAAAAAAAAAAAAAAAAAAAAAAAAAAAAAAAAAAAAAAAAAAAAAAAAAAAAAAAAAAAAAAAAAAAAAAAAAAAAAAAAAAAAAAAAAAAAAAAAAAAAAAAAAAAAAAAAAAAAAAAAAAAAAAAAAAAAAAAAAAAAAAAAAAAAAAAAAAAAAAAAAAAAAAAAAAAAAAAAAAAAAAAAAAAAAAAAAAAAAAAAAAAAAAAAAAAAAAAAAAAAAAAAAAAAAAAAAAAAAAAAAAAAAAAAAAAAAAAAAAAAAAAAAAAAAAAAAAAAAAAAAAAAAAAAAAAAAAAAAAAAAAAAAAAAAAAAAAAAAAAAAAAAAAAAAAAAAAAAAAAAAAAAAAAAAAAAAAAAAAAAAAAAAAAAAAAAAAAAAAAAAAAAAAAAAAAAAAAAAAAAAAAAAAAAAAAAAAAAAAAAAAAAAAAAAAAAAAAAAAAAAAAAAAAAAAAAAAAAAAAAAAAAAAAAAAAAAAAAAAAAAAAAAAAAAAAAAAAAAAAAAAAAAAAAAAAAAAAAAAAAAAAAAAAAAAAAAAAAAAAAAAAAAAAAAAAAAAAAAAAAAAAAAAAAAAAAAAAAAAAAAAAAAAAAAAAAAAAAAAAAAAAAAAAAAAAAAAAAAAAAAAAAAAAAAAAAAAAAAAAAAAAAAAAAAAAAAAAAAAAAAAAAAAAAAAAAAAAAAAAAAAAAAAAAAAAAAAAAAAAAAAAAAAAAAAAAAAAAAAAAAAAAAAAAAAAAAAAAAAAAAAAAAAAAAAAAAAAAAAAAAAAAAAAAAAAAAAAAAAAAAAAAAAAAAAAAAAAAAAAAAAAAAAAAAAAAAAAAAAAAAAAAAAAAAAAAAAAAAAAAAAAAAAAAAAAAAAAAAAAAAAAAAAAAAAAAAAAAAAAAAAAAAAAAAAAAAAAAAAAAAAAAAAAAAAAAAAAAAAAAAAAAAAAAAAAAAAAAAAAAAAAAAAAAAAAAAAAAAAAAAAAAAAAAAAAAAAAAAAAAAAAAAAAAAAAAAAAAAAAAAAAAAAAAAAAAAAAAAAAAAAAAAAAAAAAAAAAAAAAAAAAAAAAAAAAAAAAAAAAAAAAAAAAAAAAAAAAAAAAAAAAAAAAAAAAAAAAAAAAAAAAAAAAAAAAAAAAAAAAAAAAAAAAAAAAAAAAAAAAAAAAAAAAAAAAAAAAAAAAAAAAAAAAAAAAAAAAAAAAAAAAAADIwMjM6MDQ6MTMgMjA6Mjk6MTgAMjAyMzowNDoxMyAyMDoyOToxOAAAAFIARQBOAEEAVABPACAARgBFAFIAUgBFAEkAUgBBACAARABPAFMAIABTAEEATgBUAE8AUwAAAP/hCy1odHRwOi8vbnMuYWRvYmUuY29tL3hhcC8xLjAvADw/eHBhY2tldCBiZWdpbj0n77u/JyBpZD0nVzVNME1wQ2VoaUh6cmVTek5UY3prYzlkJz8+DQo8eDp4bXBtZXRhIHhtbG5zOng9ImFkb2JlOm5zOm1ldGEvIj48cmRmOlJERiB4bWxuczpyZGY9Imh0dHA6Ly93d3cudzMub3JnLzE5OTkvMDIvMjItcmRmLXN5bnRheC1ucyMiPjxyZGY6RGVzY3JpcHRpb24gcmRmOmFib3V0PSJ1dWlkOmZhZjViZGQ1LWJhM2QtMTFkYS1hZDMxLWQzM2Q3NTE4MmYxYiIgeG1sbnM6ZGM9Imh0dHA6Ly9wdXJsLm9yZy9kYy9lbGVtZW50cy8xLjEvIi8+PHJkZjpEZXNjcmlwdGlvbiByZGY6YWJvdXQ9InV1aWQ6ZmFmNWJkZDUtYmEzZC0xMWRhLWFkMzEtZDMzZDc1MTgyZjFiIiB4bWxuczp4bXA9Imh0dHA6Ly9ucy5hZG9iZS5jb20veGFwLzEuMC8iPjx4bXA6Q3JlYXRlRGF0ZT4yMDIzLTA0LTEzVDIwOjI5OjE4LjU2MTwveG1wOkNyZWF0ZURhdGU+PC9yZGY6RGVzY3JpcHRpb24+PHJkZjpEZXNjcmlwdGlvbiByZGY6YWJvdXQ9InV1aWQ6ZmFmNWJkZDUtYmEzZC0xMWRhLWFkMzEtZDMzZDc1MTgyZjFiIiB4bWxuczpkYz0iaHR0cDovL3B1cmwub3JnL2RjL2VsZW1lbnRzLzEuMS8iPjxkYzpjcmVhdG9yPjxyZGY6U2VxIHhtbG5zOnJkZj0iaHR0cDovL3d3dy53My5vcmcvMTk5OS8wMi8yMi1yZGYtc3ludGF4LW5zIyI+PHJkZjpsaT5SRU5BVE8gRkVSUkVJUkEgRE9TIFNBTlRPUzwvcmRmOmxpPjwvcmRmOlNlcT4NCgkJCTwvZGM6Y3JlYXRvcj48L3JkZjpEZXNjcmlwdGlvbj48L3JkZjpSREY+PC94OnhtcG1ldGE+DQogICAgICAgICAgICAgICAgICAgICAgICAgICAgICAgICAgICAgICAgICAgICAgICAgICAgICAgICAgICAgICAgICAgICAgICAgICAgICAgICAgICAgICAgICAgICAgICAgICAgCiAgICAgICAgICAgICAgICAgICAgICAgICAgICAgICAgICAgICAgICAgICAgICAgICAgICAgICAgICAgICAgICAgICAgICAgICAgICAgICAgICAgICAgICAgICAgICAgICAgICAKICAgICAgICAgICAgICAgICAgICAgICAgICAgICAgICAgICAgICAgICAgICAgICAgICAgICAgICAgICAgICAgICAgICAgICAgICAgICAgICAgICAgICAgICAgICAgICAgICAgIAogICAgICAgICAgICAgICAgICAgICAgICAgICAgICAgICAgICAgICAgICAgICAgICAgICAgICAgICAgICAgICAgICAgICAgICAgICAgICAgICAgICAgICAgICAgICAgICAgICAgCiAgICAgICAgICAgICAgICAgICAgICAgICAgICAgICAgICAgICAgICAgICAgICAgICAgICAgICAgICAgICAgICAgICAgICAgICAgICAgICAgICAgICAgICAgICAgICAgICAgICAKICAgICAgICAgICAgICAgICAgICAgICAgICAgICAgICAgICAgICAgICAgICAgICAgICAgICAgICAgICAgICAgICAgICAgICAgICAgICAgICAgICAgICAgICAgICAgICAgICAgIAogICAgICAgICAgICAgICAgICAgICAgICAgICAgICAgICAgICAgICAgICAgICAgICAgICAgICAgICAgICAgICAgICAgICAgICAgICAgICAgICAgICAgICAgICAgICAgICAgICAgCiAgICAgICAgICAgICAgICAgICAgICAgICAgICAgICAgICAgICAgICAgICAgICAgICAgICAgICAgICAgICAgICAgICAgICAgICAgICAgICAgICAgICAgICAgICAgICAgICAgICAKICAgICAgICAgICAgICAgICAgICAgICAgICAgICAgICAgICAgICAgICAgICAgICAgICAgICAgICAgICAgICAgICAgICAgICAgICAgICAgICAgICAgICAgICAgICAgICAgICAgIAogICAgICAgICAgICAgICAgICAgICAgICAgICAgICAgICAgICAgICAgICAgICAgICAgICAgICAgICAgICAgICAgICAgICAgICAgICAgICAgICAgICAgICAgICAgICAgICAgICAgCiAgICAgICAgICAgICAgICAgICAgICAgICAgICAgICAgICAgICAgICAgICAgICAgICAgICAgICAgICAgICAgICAgICAgICAgICAgICAgICAgICAgICAgICAgICAgICAgICAgICAKICAgICAgICAgICAgICAgICAgICAgICAgICAgICAgICAgICAgICAgICAgICAgICAgICAgICAgICAgICAgICAgICAgICAgICAgICAgICAgICAgICAgICAgICAgICAgICAgICAgIAogICAgICAgICAgICAgICAgICAgICAgICAgICAgICAgICAgICAgICAgICAgICAgICAgICAgICAgICAgICAgICAgICAgICAgICAgICAgICAgICAgICAgICAgICAgICAgICAgICAgCiAgICAgICAgICAgICAgICAgICAgICAgICAgICAgICAgICAgICAgICAgICAgICAgICAgICAgICAgICAgICAgICAgICAgICAgICAgICAgICAgICAgICAgICAgICAgICAgICAgICAKICAgICAgICAgICAgICAgICAgICAgICAgICAgICAgICAgICAgICAgICAgICAgICAgICAgICAgICAgICAgICAgICAgICAgICAgICAgICAgICAgICAgICAgICAgICAgICAgICAgIAogICAgICAgICAgICAgICAgICAgICAgICAgICAgICAgICAgICAgICAgICAgICAgICAgICAgICAgICAgICAgICAgICAgICAgICAgICAgICAgICAgICAgICAgICAgICAgICAgICAgCiAgICAgICAgICAgICAgICAgICAgICAgICAgICAgICAgICAgICAgICAgICAgICAgICAgICAgICAgICAgICAgICAgICAgICAgICAgICAgICAgICAgICAgICAgICAgICAgICAgICAKICAgICAgICAgICAgICAgICAgICAgICAgICAgICAgICAgICAgICAgICAgICAgICAgICAgICAgICAgICAgICAgICAgICAgICAgICAgICAgICAgICAgICAgICAgICAgICAgICAgIAogICAgICAgICAgICAgICAgICAgICAgICAgICAgICAgICAgICAgICAgICAgICAgICAgICAgICAgICAgICAgICAgICAgICAgICAgICAgICAgICAgICAgICAgICAgICAgICAgICAgCiAgICAgICAgICAgICAgICAgICAgICAgICAgICAgICAgICAgICAgICAgICAgICAgICAgICAgICAgICAgICAgICAgICAgICAgICAgICAgICAgICAgICAgICAgICAgICAgICAgICAKICAgICAgICAgICAgICAgICAgICAgICAgICAgIDw/eHBhY2tldCBlbmQ9J3cnPz7/2wBDAAcFBQYFBAcGBQYIBwcIChELCgkJChUPEAwRGBUaGRgVGBcbHichGx0lHRcYIi4iJSgpKywrGiAvMy8qMicqKyr/2wBDAQcICAoJChQLCxQqHBgcKioqKioqKioqKioqKioqKioqKioqKioqKioqKioqKioqKioqKioqKioqKioqKioqKir/wAARCAI7AfQDASIAAhEBAxEB/8QAHwAAAQUBAQEBAQEAAAAAAAAAAAECAwQFBgcICQoL/8QAtRAAAgEDAwIEAwUFBAQAAAF9AQIDAAQRBRIhMUEGE1FhByJxFDKBkaEII0KxwRVS0fAkM2JyggkKFhcYGRolJicoKSo0NTY3ODk6Q0RFRkdISUpTVFVWV1hZWmNkZWZnaGlqc3R1dnd4eXqDhIWGh4iJipKTlJWWl5iZmqKjpKWmp6ipqrKztLW2t7i5usLDxMXGx8jJytLT1NXW19jZ2uHi4+Tl5ufo6erx8vP09fb3+Pn6/8QAHwEAAwEBAQEBAQEBAQAAAAAAAAECAwQFBgcICQoL/8QAtREAAgECBAQDBAcFBAQAAQJ3AAECAxEEBSExBhJBUQdhcRMiMoEIFEKRobHBCSMzUvAVYnLRChYkNOEl8RcYGRomJygpKjU2Nzg5OkNERUZHSElKU1RVVldYWVpjZGVmZ2hpanN0dXZ3eHl6goOEhYaHiImKkpOUlZaXmJmaoqOkpaanqKmqsrO0tba3uLm6wsPExcbHyMnK0tPU1dbX2Nna4uPk5ebn6Onq8vP09fb3+Pn6/9oADAMBAAIRAxEAPwD6EZ3h4uFwP768r/8AWqQHIyORVgEMuRgg/rVd7TB3W7eWe6/wn8O1MQUVH5hRgs6+Wex/hP41JQAUUUUAFFFFABRRRQAUUUUAFFFFABRRRQAUUUUAFFFFABRRRQAUUUUAFN2L6Y+nFOooATBHRj+PNG5x/dP6UtFAB5nqrD8M0odT0YUlBAPUZoAdRUewDpkfQ0vzDo2fqKAH0Uzew6rn6Gl8xe+R9RQA6igMD0IP0ooAKKKKACiiigAooooAKKKKACiiigAooooAKKKKACiiigAooooAKKKKACiiigAooooAKjuP+PdwOrDb+fFSUyT5niX1cH8uf6UAWgMDAooopDKQjaM7rdth7r1U/hUqXYyFnXy29f4T+NJSEAjBGR6GmIskBlwwBB7HvVc2hT/j3faP7jcj/wCtUarJD/qG+X+43I/D0qUXijiZWiPqRkfmKBkReSP/AF0TAf3k+Yf405JEkGUYN9DVpWV1yhDD1BzUcltFKcsnzf3hwfzoER0Uht5k/wBVIHH92T/EUwylP9dGye+Mj8xQBJRTUkST7jK30NOoAKKKKACiiigAooooAKKKKACiiigAooooAKKKKACiiigAoopruEQse3b1oAa8yoxBDHAySB0qSqwUtiM9W+Zz7f54qzQAUUUUABIHU4oqs7B2LsNyrwo9TU8alIlU8kCgBSqnqBRtx0Zh+OaWigBMuPQ/pS7z3U/hzUbTIrbTnjqccCpKAASL64+vFOptN2L2GPpxQBJRTMMOjfmM0bnHUA/Q0APopvmDuCPwpQ6nowoAWiiigAooooAKKKKACiiigAooooAKKKKACiiigAooooAKavzXiD+6pP8AIf406kg5uZW9Aq/1/rQBYooopDK1FFFMQUUUUARmBN25Mxt6ocU4SXEfXbKPf5T/AIU6igBy3kROJMxH0cY/XpU4ORkciqxAIwRkVH5CrzGWjP8AsNj9KALL28Un341J9cc1GbMD/VSyJ7Z3D9aYGuE+7Krj0df6inC6df8AWQH6oc0DGmK4Tp5cg/75NNMrJ/rYpE98ZH6VOt3AxwX2n0cbf51MCCMjkUAU0ljf7jqfYGn1M8MUv+sjVvqKiNmo/wBVJJH7Bsj9aBCUUhhuE6NHIPcbTTDI6f62F19wNw/SgCSimLNG5wrgn0zzT6ACiiigAooooAKKKKACiiigAqCRw0hJ+5H19zUkr7E4+8eF+tRImWCDlU5b3P8AnmgCSFSFLMMM3J9vapKKKACo5mIARThm/QdzUhOBk9Krbi2XH3n4QHsP880AOjUNJwPkj4H1qemooRAo6CnUAFNkfYhPU9h6mnVXdwzlj9yPp7n/ADxQAgTcRGTkn5nNWajiQquW+83J/wAKkoAKKKrSMshLMNyLwo9TQBZopsalYlVjkgc06gAoIB6jNFFADdgHTI+hpfmHRs/UUtFACb2HVc/Q0vmL3yPqKKKAHAg9CD9KKYVU9QKNpHRmH45oAfRTMuP7p/Sl3+qn8OaAHUU0SKe+PrxTqACiiigAooooAKKKKACi1HyO395z+nH9KCcAk9qdajbax56lcn8eaAJaKKKQytRRRTEFFFFABRRRQAUUUUAFFFFACEBhggEe9M8hAcpmM+qHFSUUAMBnT7k24ejrn9RTxcyr/rIc+6Nn9DRRQA5byEnDNsPo4xUwYMMqQR6iq5GRg81H9njzlRsPqhx/KgC08Ucg/eIrfUZqI2UY/wBWzx/7rcfkajHnp9yYkejrmnC5mX78Ib3Rv6GgYGC4X7rpIP8AaGD+lNLyJ/rIHHuvzD9KlF7D/GTGf9tcVMrK4yjBh6g5oAqpIsgyjA/0p1SS20cp3EbX/vKcGoHElvzKd8f98DkfUf1oEPooBz0ooAKKKimY4CL95v0Hc0ARs+5jJ1A+VB61NEmxMHknkn1NRxrukyPuR8D61PQAUUUjsEQs3QUARTHewjHTq309KIhvYyHp0X6etMwzfKfvyHLH0H+eKsgAAAcAUAFFFFAEcrlVwv3m4H+NRogZwo+5H19zSF9xMgGSflQVPGnloF6+p9TQA6iikZgqkscADJNAEczHARfvN39B602NQ0nA+SPgfWm5Y89Hk4H+yKsIoRQq9BQAtFFFADXkEYGc8nAAGaVXVxlTkfyquX3Eydf4UHr/APrqeNPLQDqepPqaAHUUUUAFFFFABRRRQAUUUUAHXrTdg7cfQ4p1FACYYdG/MUbmHVQfoaWigA8wdwR9RShg33SD9DSUhUHqAaAH0VHtx0JH40uXHcH6igBLg/6O+OpGB+PFWwMAAdBVNyWeJCuMuO/pz/SrlABRRRSGVqKKKYgooooAKKKKACiiigAooooAKKKKACiio/MMjbYF3nuf4R+NAEhOOvFR+ehOE3SH/YUmpUtFPzXB81vQj5R+FWAABgDA9BQBS8xj0glP/AaXdL/z7yfmP8audKb5if3l/OgZU3v3gl/75B/rUZCBtwiljb+8qEVogg9DmigCil80bASguv8AeCEEfUVdBDrkcgj86WikBVe3eI5twCneMnGPp/hTPOUNtkBjb0cYqyJ4jJsEilvTNPZQy4YAj0IpgVyQBk9Krbi3zj78nCg9h/nmrLWMZ4Qsg7qDwfwpjW8yTb0CyDGAM4IoEKihECjoKdUZlKf62KRPfbkfmKVJY3+46n6GgB9QSNukwfuR8k+9SSvsTI5J4A9TUKpuYR9QPmc+tAEkKnBdvvN29B2FS0UUAFRTHOIx/F19hUjMFUs3AAyar/M3s8h/75H/ANagB8Q3yb/4V4X+pqakVQqhV4AGBS0AFQyne+z+FeW/oKkkfy0J6noB6moAm4iPrn5nPr/+ugCSEbsyH+LhfYVLRRQAVFM2cRjq3X2FSMwVSzcADJqv8x9pJD/3yP8A61AD4l3ybv4V4X69z/SpqRVCqFXgAcUtABUbyhGxtZjjJA7CnuwRCzdBVfDH5f45OWI7D/PFAFgEMoI5BGRS0gAAAHAHSloAKKKKACiiigAooooAKKKKACiiigAooooARBuu4x/dUt/If1q1Va3GbmRv7qhf5n/CrNIYUUUUAVqKKKYgooooAKKKKACiiigAooooAKKKKAI9vnzCL+BeX9/QVcACLhQAB2HaoLIf6MH7yEsT/n2ptyfNmWH+EDc/v6CgY57sElbdfMbu38I/GojG0n+ulZv9kHA/SngADAGB6CloERfZof8Anmp+tL5EP/PJP++RUlFAEX2aH/nkv4Cj7PF2Uj6MRUtFAEfkgfdeQfSQ0GBW/wBYWk/32JqSigBhijK7Si7fTFIEkj/1MpA/ut8wqSigAF06/wCthb6pyP8AGnrdwMceYAfRuD+tMpCoYYYAj3FAFoHPSmPBFL/rI1b3Iqp9nQcx7oz/ALDEU4G4T7swYejr/UUDJRZxBsruGOg3EgfnUQt54s7NkgJyf4TTxdSL/rIcj1jOf0NPS7hY437W9H4P60AQGbZ/rY3j9yMj8xTldXGUYMPY1bqJ7WGQ5aMZ9RwfzFAirKd8mz+FeW/oKWEZzIerdPYU+Wz/AHW2E55yQ5+9+NNEoDbZVMbdg3f6GgCSiio5mIARThm/QetAEbvuYufupwvuf88VLEhRfm+83LVHGoaQYHyR8D3NT0AFFFNkfYhPU9APU0ARytvk2fwry39B/WlhXOZD1bp7Cowm4iPr/E59f/11ZoAKKKZK+xPl+8eFHvQBHIwaTk/JHyfrT4VOC7feb9B6VGqZYRjlV5Y+p/zzVigAozTZH2RluuBwPU1BGmJkA+8ASzev+f6UAWaKKjkkZWCoASRnk9KAJKKaj74w2MZFOoAbI+yMtjOOgpsbsWZXxkAHI/z7Uk/OxfVv5c/0oh5aRv8Aax+QoAloooJwCTQBEJgXA2naTgN71LVaMf6gHr94/l/9erNABRRQTgZNADrQfLI395z+nH9KnqK1GLWPPUjJ/HmpaQwooooArUVHbkm3TPUDB/CpKYgooooAKKKKACiiigAooooAqkFWJk8wHJ+ZScfpS7ndSI5VbIxyOR+VWahuFBQcDcWUA49xQBdjTy4kT+6oFVQd1zM3+0FH4D/69XKpQ8q7f3nY/rQBJTJHKKMDJJwBnFPqKXmSMe5P6Y/rQAecw+9E34EGjz0/iDL9VNFI4LRsBwSMCgCUEEAjoaWoRJIoA8tSB6N/9al8/wDvRuPwz/KgCWiqyhny251yxxz2z6GnfvB0kz/vKKAJ6KZExeJWbGSM8U+gAooooAKKKKACkKhhhgCPQilooAjECr/qmaP/AHD/AE6U4SXKdGSUf7QwfzFOooAdHdIzbXzG/wDdbv8AQ96mZFdSrqGB7EVWZVdcMAR6GmKJYf8AUvlf7j8j8D2oAe1qyc274H9x+R/9aoJA8fzSAK7nauTwP89atJdoSFlBib0bofoamZQ6kMAQeoIoGVUUIgVegp1DWpTm3fb/ALDcj/61R+btbbMpjbtnofoaBElV3cM5c/dTge5/zxUkzkKFX7zcD296ZGgaQAfcj/U0ASRIUXLfeblqfRRQAVWL7iZOo+6g9akmbOIx1br7CkiXfJu/hThfr6/0oAfGmxMHk9SfU0+iigCGU7pFTsPmP9P8+1LAMqX/AL5yPp2qIkupI6ytgfT/APVzVoDAAHQUAFQOcTOf7qD+tT1Vk5E3+0239AKAJ4hthQeiin0UUAQyHNwP9lc/n/8Aqp0A/cKf73zfnzUUhz5xHX7o/L/E1YAwoA6CgBajnOIHx1xgVJUU/wBxR6sP55/pQAiD/SB/sp/M/wD1qmqKLmSQ/Qfpn+tS0AFRznED46kYFSUyQbmjX+84/Tn+lAFtRtUAdAMUtFFIZG8yRthjzjNFPKg9QD+FFAFOIbWlT+7If15/rUlMPF5N7hT+n/1qfTEFFFFABRRRQAUUUUAFFFFABUcnLwj1kH+P9Kkph5uoB/tE/oaALlUbb/j2Q+ozVuY7YHPopP6VWhG2BB6KP5UAPqF+bj/dT+Z/+tU1QDmaQ+hA/T/69ADqKKKACiiigApsh2xMfQGnU2XlMf3mA/WgCZF2oq+gxS0UUAFFFFABRRRQAUUUUAFFFY/ivVZNH8OXF1bnE5xHEfRmOM/hyfwprVibsrj9S8S6PpM3lX98kcveNVLsPqFBIqXTNe0zWNw068jmZRkpyrAeu04NeT6JoF/4jvJY7PaWX55ZZmOAT3J5JJpl/Yah4a1lUkPk3cJDxyRnIPoQe47fmK05Ftcx9pLe2h7UyhlwwBB7GmKskP8AqH4/uPyPw9Kr6Rf/ANqaPaXu3aZ4ldlHY45H51crI3HJdoWCygxP6N0P0NTModSGAIPUEVWZQy4YAg9jTFWSH/UPx/cfkfh6UASGzVdxhODjABOQKhUm3QLNGUA/i6g++anW8UcTqYj6nkfnVgEMMjkGgZVBDDKkEeooZgqlm4AGTT3tI2bcmY27lDjP4dKYbSQ4DTblznBXBNAiv8x9nkP/AHyKsKoVQq9AMCo/KmjlZjFvHQFWHA/Gl80j70Uq/wDACf5UASVHOf3e0dXO3/Gk+0xDq+3/AHgRTGkVnaQHKIMAjue/9KAHRjdMT2QYH1qamRKUjAPU8n60jTKDhcu3ovagDnfGviOTQtPjisyBeXRIRiM+Wo6tj15AH19q8/s/D2teIo5L+3ge92yFWlkmXduwCfvHPcdK3/iVDN9s0+6cDy2R4uP4WyD+oz+VQ6S+nR/D/fq4ujEurZQWpUNv8oYyT2xnpz0r2KH7ugpQ3ZhLWVmJ4V8R32jaymlas8ht3k8orOSWgc8Dk9s8Y9812Oqa0bXVEthqmmWERg8wSXi7t53EYH7xBxj3rzi6u5vEvjKOeGIJJdXMe1Ac7QMcn6KuTXp9xb6lHqv2uyitJg0AiZZbhoiCGJyMI2evtWWJjFTUmtWhwbtYa+oiBYkaOW7k2CeZ7WMbQpJ+bBbOCQcAFjTotYlfWby1ksplt7eFJVmCg7s57Bixzjgbc8HPao9Q06+vQj+TZrMY9vmec4e3buUcLlh04O3pT7jS7x7i6MVwii5tViMuSHR13YIAHQ7vUEVxpQtqaako1qFVm+029xavEocxyqpZlJwCNrHOTxjr7VHNqmYgZLee0kSWNSk0ascO20H5Wxg5PfI9O1UYPDcqzXEqw2FiZIowq2qkjzEfcGY7V3Z49/rV6exv72123Jt4m86J1SORnACuGPzFRkkDpjj1ptU09A1Hx6rCs5UxTeS0xi+07R5e/ONvXd14zjGe9KmtQvOqfZ7lY2na389lUIJASMdc8kcHGKh/su62fYt0P2L7R53mbj5mN+/Ztxjr/Fnp2p50yb7LHFvjyt99pJycbfMLY6dcGlamGpONSX7YkD21zGkjmOOd0AR2GeBzu7HkjB9arLr8JuIGFnelJGZIWEa4kcZG0fNkfdPJAHvVOPQ5pNYhuFhsZHgujM14QxmdTu+XJHGMgYyRx2rRi0WeOHTgXjL21wZZOTgr8+AOOvz0NU0GpYXW4WtRILe488ymEWuF8zeBkr97b05znHvTP7fiJjSKzupZ5A/7hVXcpQjcpJYAHkc5wfXpVK98ONdeZJLDZ3RF41wkFyu6N1KBcNlTg984NWbPS2spredbeztI4YpQ0Fou1VLFSMcDP3eTgfSi1O1x6j11uWaGOaz0y5uIpFyGVo1wckEEM4ORiin6TaNZ6bHDMVLBmbKnjlif60VDcU7JBqWJOL5veMH9TTqWeKQzCSIK3y7SCcd6i83Y22ZTGe2eh/GsxklFFFABRRRQAUUUUAFFFFABTU5vo/ZGP8qdSQ83re0Y/U//AFqAJLw4s5fdSKYBgAU69/49iP7zKP1FNoAKgkTY4Ku3zvyOMf54qcnAyeBUDyJJLGEZWxk8HPt/WgB1FFFABRRRQAU1uZIx/tZ/SnUi83A9lP8ASgCaiiigAooooAKa/wB0Y4yQP1p1IeXQf7VRU+FjjuL5TD7sh/EZpNsg/ut+OKmorLVbMshyw6o34c1h+L9PbVvDVxb2/M64ljU8bipzjn1GRXRUlUpzT3JcU1Y8a8MeJ5vDdzNJHAs8U6gSRs205GcHPbqe1Q65rF14m1pZzBiRwsUMMfPfgZ7nJNdD8QfDaWUw1iyQLFM+24QDhXPRh9eh98etW/h/4fSK3GtXkZMsgItgRwidC31P8vrXX7SCXOzl5JN8h1ujWB0vRLSyZtzQxKrEd2xz+uavUgdW6MD+NLWV09UdFraBRRRQAdetRiLYcwsYj/s9D+FSUUAILideHiD+6Nj9DThex/xh4/8AeU/0pKKAJUuIZPuSofYGpKqNGj/fRW+opn2eIfdXb/ukigC9TGijdSrIpB7Yqr5RH3ZpR/wPP86UG4X7s272dR/TFAyX7FD2DAegc4pHtPk2xP5f4ZponuB1jjb6MRSi9XywzIwJOMDmgDP1PQV1TTZbK5EciSD7/IZT2YHnkV41qNjNpV9LaXmA8fO4dHU8hh7Ef1Fe6SXsXkvyyttOAykVzWv+FxrOpaXcgxqtq+Jw2f3keQcfmPyY124TEeydpbGU432M/wAE+HRpkcep36MLqeMlEKk+Shxj8T39OnrXWi/gN19nHm79u7cYHCY/38bc+2c1YtRmaQ+gA/nVlkV/vqG+ozXNUqOpJykWo2VkYRiOpapdxy3FxHDbbFjSCZo8kruLEqQT1xg8cdKZfX13p1vBEbmKSYRku/2WSZ5MHH+rj5A9W6A9q0LrRYp7jz4LiezkKhXNuVG8DoCGUjueRg+9Rt4ftwsQtbi5tRHH5R8lx86dcHcD35yMH3qlKOlxWZnrq19eReZYrbRKLKO6ImRmJLbsrwRj7vX9DSx6teqqPcJblbize5iVFbMZUKdrEn5vvdQFq/BoUdpD5cEzlfs623z4PyLnHPr8x5qGfR5BbII13tBaSW8Q8wchlA5yOvyjuKfNTvboFmQf2lfW6q14LZxNavNF5SsNjKoO05J3DnqMdKkmvbkywIIFl82zkuBEpILsoXC59DuP6VYsNDSKNHvJp7iTyPJCSsCIlIG4DAGenUkn3qP+xbe1dZLi9vLgiFreNXcZCNjgbQDkYHPX1NF6dw1JNEv5rrzI5pbVwiqdsMbRNGTn5WRiSPrxn0rLgRrvXr/zbbVrhEuwqzQagY4YxsU42eavqTwp6960bfT/ACmkuLm4nuJGQLmZlyEGSF+VQO/uferthZJaxSujPuuWEr5I+VtoHHHtS51FtodrmGmvW58VY/tSEo0psxZ+eu4EDO/bnOd2V+mKrTzJJdaqA+sPfLOyW4gNwYh8o2jj9119fxrpP7Kg/sgaduk8tVAD5G/IOd2cdc89OtNFnHauwjZmNxcGZ9xHB29vyFV7SC2FZnN6z4ql06+W1WeySSONfOWWdUIcjJwCenIorooUi09XRWZjI7SsznJJY5/+t9BRTVSmlbluKz7l55o42CyOqlumT1pxAZcMAQexqrcANeKGGR5Z4P1FNVHi/wBQ+B/cblf/AK1cxoSNabObd9n+w3K//WqMyPH/AK6Jl/2h8w/SpVvFHE4MR9T90/jU4IYZUgj1FAFVXVxlGDD2NOqSS1ikOSuG/vLwaiNvMn+rkDj0cYP5igQtFRmUx/66No/cjI/MU9WDDKkEeoNADXlVGAOScZ4GaElVzhSc+hBFMb/j4Psg/maE/wCPhvZR/M/4UATUW3NxOfZR/P8AxootOTM3rJj8gKAFvPuxD1kH9TSUXXM0A/2if0/+vRQBHOf3D+4x+fFJiifog9XH6c/0ooAKKKKACiiigApI/wDWyMeAABn07/1pazNb50Ocv/qjMnnenl71D59sA59qYjRtb60vg5sruC5CHD+TKr7T6HB4qesjVZre2Ek9pj7fHZyND5YJGzjkgcYBxjPvjvVK9d7BJo7G9uJll0+aZmedpCjADa6kn5c5PAwOOBRYVzpKKwPsJOsLam+v/JltDM6/a3BLhgMg5yvXoCB7VDYyNqgsxfX1xHv01ZW8q4aLLbuX+Ujp+XrRYLnQ/aIvtX2bf++8vzNuD93OM56daeOZk+hP+fzrkpdQvEtBeq4Nz/ZKnzG+XrKBvPBxxz0P0q0iXtrZ37XV2luiRJLCIr+S6dXyTkllU7WIA28g84qZxurDjLU6miuXtbi4vLOyF7cTwPe3TrdosjKYWCnEKkHK9ByMZ6961dFkc/bIDK80VvcmOKR23MV2gkFu+CSMnnjms3GxSlcvw3ENzHvtpY5kDFd0bBhkHBGR3BpgvbVrV7lLiJ4I92+RHDKNvXkemDXI6bctpNlJBb/K+pvJ9lH/AE38wq36Yb8Got0mtbC00zTVUQyXtzGwa6e3LlWOB5iKzAnk8YJx1qvZi5zp9QsbbXdGltJ/MEFyg5A2sO4OCOCDg8ilsJrKO2t7WzkXYiFIkPBKodp4PoeKx7cXU01jY6neYQrM5a1u2O4q4CoZAFYkAnPTOOc1UtLu4trWA2czyBbS9kUZyJGWQbWIHBP+NHLpYObW51xVW+8oP1FN8lO2R9DisC4YWGltcWeqTySS24dvMmMvBZQZVBJ24BPAwvtxVuxX7Jrj2dvczTwG2EzCaZpSjbsA7mJI3DPHTjiodNblKT2NPyiOjn8Rmk2yDsrfjipqaxwhPoKjVdStyNTuUEd6WkQYRR6Cg5wcde1dEb2VzN7i0VVHyj5zKrdzkkf4U5ZGP3Jlb2YD+lMCxRUPmSDqgP8AutS+eB95XX/gOf5UAS0UwTRt0dc+mafQAjHapPoM1XjHzQqew3H8sf1p8zgo0anLMMYHaiPm4P8Asrj8/wD9VADXRZJ33qGwAOR+P9aaYVVkCbl3Njhj6Zp6cs59XP6cf0pRzcIPQE/0/rQAot1BJDPuPcORTtsq/cuH/wCBYNPooAaJLlf4o3+qkU4XMw+9Bn/df/GiigBReJ/HHKv1XP8AKpI545iRG2SOoqKkh/4/j/1z/rQBNcSmGEuBk5AAPqTiq6R4Yu53yHqx/kPapb3/AI9G9ip/UU2gCOfmFgP4vl/PiroGBgVTYbpYl9Xz+XP9KuUDCq8vN2g/uoT+ZH+BqxVb711KfTC/pn+tICrcWzXM7MucL8vH5/1oq5aD9yW/vOT+uP6UU7iGTf8AH8P+uf8AWmSuylQmMse49qdL/wAf3/bMfzNRyczoPRSf5UAHmSd0Vh7N/wDWojjVl3x7ojkg7Dj/AOtS0sH/AB7p7jP50AOEtxH12yj/AL5P+FSLeRE4fMbejjH69KbQQCMEZHvQBZzkccioXtInO4Lsb+8hwagEIQ5hZoj/ALJ4/LpTxPOn31WUeq8H8qBkclnMG3JJv4xgnaf8KajLCx80OhOBl+n5jirSXcTHBbY391xipuo9RQBVBBGQcj2p1l/qWP8Aedj+tK1nETlAY29UOP06VJDF5MITO7GefXmgCC45vIx6Ix/UUtNk5vj/ALMY/UmnUCIpeZkHoCaKSTcJi2xiNoAIpBICwGGBPqpFADqKKKACiiigCOK4imaVYnBML7JBgjacA9/Yg06xljurCOaE+ZFKu4NtIDA+xrD1lpbW+aK3DD+1kFuGUfckHVvb92W/74qlq9sv9qy29xe2VkiQxrYm5tWkdcLgmEiRfnB7AE9O1VYm50tlDp9tNcW+n28EDoVMyQwhOWGQTgDNSRadZ28cscFlBEk2TKqQqokz1yAOfxrmry2jtLrXfsMcMWoSwROrpEBI6f8ALRgBhj3zg5z71FFa2zaddfZr6yubeWa3Vo9Ot2hjVvNGTnew3HvjB4GaLBc60CM3ZHkkSpGB5hi/hJ+6Gx7dPpVSXRLOa6V57aCSFIREkDwKVXDZBAPA6+lY+pW0MU+p28MaxQi0tlVI/lCjzW6Y6Ul9Hb6bdanBb28cdq0Vu7pysalnYM7BeowAT645osFzooNk+ZvsrRtgxjzIwGKg/ntPXB/KobaysLdpLeHT4oYw6uVS2CoX6hhxgn37VzFlFFPDPaeZbTWg1K32C0iMMO0qCdq7jwfY4PNXLyOOK+vYivl2Ky2wuFQYVYgh4OP4c4z7Z7VMo3W41I6WWytZo5Y5rWGRJjmVXjBEnb5gevQdaijurG102SWHZFaW25W2RkKm0kMAAOxB6VR0D7N597/ZWz+zNyeR5P8Aq9235tmONvTpxnPvWdc3kEeh6npUkgW/lknWK2P+sk3sSpVepB3DkcVny62Kv1OlS2t9sRSCMLGS8eEA2k5yR6E5P51S1CXS4LGaPULQNbGUK0Zs2kWV254UKdxJPUA81japYwPFrlxNErT20MbROeTEwjyGX0PuKZd+dJLe/Z5ESZtTtdryIXUHYnJAIz+YqlHzJcjZSbSNQsfJFos0NuyD7LJZsDGSflPlsoIHvj1qcXGmWyyyIsUYtH8lmWLHlsxU7RgdyynjiuevFnBv/wC05Y3vhPaqPKjMaND5oKsFJJ6lgck8ioL3S9JW31+JrGyEiXkczIYU3CP5Pmxjp9/n/e96fKg5mdhBYWlqZTa2kEJlOZPLiC7z6nA5/Gi1srWxjKWVrDbIx3FYYwgJ9cCuS1eOK41WVXv9PtIDDH/Z7TWplONvWArIo3Z7KCenatrSbSEatqd06B7hZwnmsOQPLTOPTPepcbK9xp67Gs7lWCqATjJyaazOyFdqjIx1/wDrUA7nL9jwPpS1nGHMrstuzCiiityAprIr/fUN9RTqKAI/IT+HK/7rEUnksPuyn/gQBqWigCApJ/EqOPrimbFX70TRj1BwP0q1SEBlIYZB6igCAA+Z5a4jGMjA5NTIgRcL/wDrqAqQdhOGXlG9amjfeuehHBHoaAIk3ouGib1JGD/WnRZaZm2sAFAGRipqKACiiigAooooAKYT5dzE/Ykofx6fqKfTZE8yNl6ZHX0oAHmMl7LZyqArRbkb17GmwsWjAb7y/K31FUb+zuL/AMqaNy235Hj6FT3rQmTyJRIPuNgP7HsaegCxjdeL/soT/If41aqtbjM8regVf6/1qjrF5EssNtJuUeYru2ONtJK7A16pq+2KWX/aZvy//VVouBEZB027qp7cWccZ6ttU/ieaALcCeXbxr6KAaKfRSGVG5vZT6Ko/mf61G3Nw3so/rT15nnb/AG8fkBUY5lkPuB+gpiCU4ic+xqZRtUD0GKhl5QD1YD9anoAKKKKACiiigBGUMMMAR6EUwRGP/UyNH7A5H5GpKKAEFxMn+sjEg9UOD+RqxHIssaunRhkVBTrL/j0UehI/U0ARv/x+yf7i/wBadSS8Xw94/wCR/wDr0tABUM7BZY9xAHJyTU1FAEQIYZBB+lFNTG6Qj+9/9anUAFNYsXVUwCcnkU6mkMJA6EcDGCKABkmI2/LgkZIJ6VPkjoaiSRzIEdVGQTkGpaADJpcn1pKKADNGTRRQAM2Bkk06NSq/N948n2piDe+f4VPHuamrCT5mWlZBRRSEgdeKQC0gYN0OfoaZKx4Rep7+gpmzHKfKR6ULmew9OpPRmo1l5xJ8p9exqShMAzUUjb22D7o+9/hSyOV+VfvHp7e9NACjAoS5nboK9haKR22ozYzgZxUXmSnoqD/gRP8ASuggmoqHMx/iQf8AAf8A69PiYvECevegB9FQmV/MZVVcKcZJ9s/1o3y+ifmaAJqKh3y+ifrT4nLxhj156fWgBrysJCqqGwATlsU6OTzAcjBBx1qEb0Zi6OSSeRg8Z4p8Gcv125yMjFAD5E3rxww5U+hqJS27eo+YcOpPWrFVTyHwSN0mOPqBQBL5x7xN+BBo89O4YfVTR5H92Rx+Of50eVIOkmf95aAF8+L/AJ6KPqcVICCMg5FQfOsgV9pyCcj/AD70wBT8whYDJ+Ze/wCXNAFqiqu8L0mZfZ//AK9SB5f9hx+X+NAE1FMSXc20gq2M49afQBHu+zzeb/A3D+3oauMquhDAMrDketVyMjBpsMn2dhE/+rJ+RvT2oAmt4PIRlBLZbOTTZrOKe5imkGWizip6KQyG7P8Aorj+98v5nFRkZuIV9CW/If8A16fdc+Uvq+fyGaSL5rtj/dQD8z/9amIsUUUUhlKDlWb+87H9aVoY2JJQZPU022/49o89xmpaYiMQIGBG7g5+8TUlFFABUEgEk2D0Vf1P/wCqp6gT5i7/AN5j+XSgA2uv3JD9G5/+vT45GZmVgPlxyD1pKIB+7Lf3zn8O36UAS0UUUAFLZ/6tx6SN/PNRySbAMDczcKo7mp7eIxRnecsx3NjoDQBFccXcR9VYfypamlhSYASDOOhBwRUDQTR/6txIP7r8H86AFoqPzgG2ygxt6P3/ABqSgCrHIgXDMASScE46mpQQehzUvXrTDDEesa59cUANoo8hf4Sy/RjR5LD7sp/4EAaAETm4+ifzP/1qmqOONldmcgkgDgY/z1qSgAooooAKaxJIVerfp706kKhuv4H0qZJtWQ1a+pKoCqAOgpaiEhTh+R/eH9akByMjkVguxYtQsfMb1VePqadIxGFX7zd/QU0AAYHSqiuZ+SE3ZAqhc4z+JpaKK2SSVkRe4EZGDyKQFk+78y+hpaKUoqQ02hFB5ZvvHrS0UU0lFWQm7iMMqR6ioYjmFD6qKnqvFxEB6cUwH0Qf6sj0Zv50UQ9ZB/t/0FADV/1sv+8P/QRTqZvVZpQzKDuHU/7IpfNj/wCei/8AfVADqW3/ANSPqf51E8ithUkGSwHB561OiBFCjn60AOooooAKqpyIv9pt38zViRtsbN6AmoYxiSJf7qH+goAsUUUUAQuf9I/3U/mf/rU6AYt0/wB0GopTzOfRcfpn+tWFG1QPQYoAXr1qGaKNYnYIAwUkEcVNUdx/qSPUgfrQAxB/pC+yH+lT1DHzO59FA/nU1ABUdwM27D+8MfnUlMcZaJfWQfpz/SgC5RRRSGV5ubpB/dQn8yP/AK9LajJlf1fH5DFMJzdSsf4VVf6/1qS1GLVM9WG4/jz/AFpgTUUUUgKkY2xqPQAU6iimIKKKKAEbO07euOKgUmNArIwAGMgZ/lViigCs8itGQjAk8DB6ZqwAFUAdBwKCqlgSoJHQ4paACmSSbAONzE4VR1JokkCAcZY8Ko6k1LBAUPmS8ykfgo9BQAQQbCZJDulbqewHoKdPP5QCqN0jfdX+p9qJ5xEAFG6Rvur/AF+lQIhUlnO52+83+e1AxVluI/vbZR3H3TUsd1E7bSSj/wB1xg0yo7iSGK3eW6ZFiRSzs/RQO9FriLjKGXDAEehFV2swvMDmP/Z6r+VcHd/EqG2uCuk2ctxED96aXYrfQYJx9cVt6B4+sNZmFtcRPZ3R+6jHcr/Qj+RFbyw1aMeZrQnni3Y3i0sX+uj4/vJyPy60qOsi5Rgw9qtK6uu5GDD1BqOS2ikbcRtf+8pwawKI6Ka0U8XI/fL9MMP8aEkWQfKenUdxQA6iiigAooooAKKKKACm4KnMfHsehp1FTKKluNNoQA5LN1P6e1LRRTilFWQN3CiiimIKKKKACiiigAqCPjcPRz/Op6gXiSQf7X9BQA6iL/WyD6H/AD+VFInFw3uo/n/9egCbA9KrtGrTvuUHpVioXDrMxCMwIHQj/GgBvkx/3F/KliVUnYIoUFR0GO9G5/8Ani/5j/GljDGbcUKjbjkigCaiiigCO4/1DD14/Pimx83Deyj+Z/wpZ/uqPVx/j/SiHl5D7gfp/wDXoAlooooAqtyr/wC1Jj9QKtVVTkRf7T5/matUAFRT/wDLMer/ANCalqKXmaMexP8AL/GgAh+9If8Aa/oKlqOD/VZ9WJ/WpKACkXm7jHoGb+n9aWiAZunP91APzJ/woAs0UUdKQyi5JiuGHVnIH/oNXVG1QB0AxVGP5o7cH+Nwx/8AQqv0wCiiikBWooopiCiiigAooooAKbJIEA4JJOFUdSad060lqnmMZ26dIx7ev40APggKHzJeZT+Sj0FOnnEQAUbpG+6vr/8AWonm8lRgbnY4VfU1AiEEu53SN1P9B7UDBEKks53SN95v6fSn0UUCCuM+JV3JFotrbISEuJ/3mO4UE4/PB/CuzrC8X6G2u6E0UGPtMLebDk4ywBBX8QSPrit8PKMasXLYmSbjocL4W06zutL1a6utKk1SW18nyoI5HVjuZgcbfbnoelVPFFjFoesQtpvmW7eTHciJ2y1u/XaT6jA/OotM1y40fTdSs4FlhnujGvmrIY3hKMSRjrk5I6ik0PSLjxLrQgZndMh7qZiSQnfn1PQfn2r2rOM5Tk/d/wCAjn3SSPX7bFxaw3CgxPJGrkocdRn8anE08f31Eq+q8N+VKqhVCqMADAA7UtfPs6iaKZJhlGyR1B4I/Cmy26Snccq46OvBFQPErkNyrDoynBFOW4ki4nG9f76jkfUf4UhjW82D/Wjen99R0+opysHUFSCD3FWUdZFDIwYHuDUMlqpYvCfLfvjofqKBDaKjMjRttuF2ejD7p/HtUlABRRRQAUUUUAFFFFABRRRQAUUUUAFFFFABUbQhmLZYZ6gHFSUUAR+RH3BP1YmnLGiHKKAfUCkWPz7hlcnYgGVBxkmiWIW7I0WQjNtZc5HsaAH0UUUAFFFFABRRRQBFLzJGPcn9P/r0QfcY+rH+eKR+bgf7KfzP/wBanQf8e6e4z+dAElNc7Y2PoCadUc/+oceox+dAEcYw8S/3UJ/kP61YqFObg+yj9T/9apqACoXP+kH/AGU/r/8AWqaq0p/15HXGB+X/ANegCaAYgT/dFPpAMAAdqWgApbUZaZvV8fkBSU60H+jg/wB4lv1oAnqO5bbayHvtOKQXUBOBPGTv8vhx97+79faku/8AUhf7zKP1pDI4l/0mNe0aH+g/xq1Ve35nmb0wv6Z/rVigAooooArUUUUxBRRRQAUUUUARsvnyiEfd6ufb0/GrhIVewAH5VBZjKySf33OPoOP6Ul2d7JD2bLN9B2oGRoTNIZm78ID2H/16ccllUHGT1xTqQf65foaippEcdxfLf++v/fP/ANejbJ/sn8cVLRWWvRlEOJP7o/BqPn7xt+BFQx6lBJqsunrv86JA5JHyn2B9RkZ+oqc3MATeZ4wu/ZuLjG7OMfXPGKq1RbsWh5x8RtGW2ni1e3iZfPbyp1A6vj5W+pAx+Vdf4Z0aLQtGitQP9Icb53K43Oev4DoPYVZg1TSNZtJ3822ngtZcSGRkZUKnhupAHGQatx3EN2I5rWaOaJlJWSNgynp0IrqqV63s40pdHr+hCjG7aJKKy/7dQea7WF4trDI0b3WIygKnBOA+/Ge+2rxvLVbtbU3MIuGGVhMg3keoXOaThJCuTUVTuNTt4eIpIppBKkbRpKNy7n25I56HP5VaSSOR3WORWZG2uFYEqeuD6Hmp5WtRjTFht8TGN+5HQ/UVIl3tIW4XYezD7p/wqmdTgGmLfFZPKbGBgbuW2+vrUrXtmLgWzXVv5zkqIjKu5iOoxnNPlfYLl8gOuCAwPr3qs1s8XNucr/zzY/yNUxfRWokYzwwxpIybJZlCnHXBzx9D+VLP4jsLR41vJo4GluPIQNMnJx169P15HFChJ7ILospKHJHKsOqtwRT6qW+raXqz3aQXMTNZPtkdZF+XjO7IPTqOe4PpQl/bi3W4F5bzWrHC3CSrtz6E5x+VDjJboC3RVS91GOzsVuVje5V3REWAqS5YgDBJA7+tEd/i3knv7eTTo4+rXckQGPXKuwH44o5Xa4rluiq7X9mlutw93brC43LK0qhWHqDnBpXvbSK0F1LdQJbEAiZpVCEH/azilyvsMnopqOkkavGyujDKspyCPUGnUgCiiigApshIiYrwcHFOqOZiqcAHJxzQAwByoPnPyPQf4UybekRYSvkY9PWhVnVQMx8DHQ02QSPDKGZfl9F68Z9aAJoRsukIZjvyDk9eDVm7XdaPjqo3D8OaqO/lywt/00AP4gitEjIIPQ0DKoO5QR0IzS1Hb8QhT1QlT+BxUlAgooooAKKKKAK0hw0zeigfpn+tWFG1APQYqs3Ik/2pMfyFWqACop/uKPVh/j/Spaim5kjHuT+n/wBegAh5kkPuB+n/ANepaig+6x9XP+H9KloAKqnlW/2pMfrj+lWqqx8iH/abd+hNAFqiiigBrttjZvQE1KFCWAVn8sCPBb+7x1qCfmEr/eIX8ziqfiS4QaZcWcsF4yT20hM1tCZAmMDkDnPOQO+DQB51aaMt8qQR6jo88/2gpB9mvAGUl8tOQSCXOAAPpXq0+d0CE5Ock+uB/wDXryzSLSxvPFunW9lJpTyxyRTmQxNFcoUT5kCFRxkZ69q9QuX2zlv+ecRP5n/61AEtp/qS395if1/wqamQp5cCJ/dUCn0hhRRRQBWooopiCiiigApsjbI2b+6CadUcw3Ksf99wv4d6ALNunl20anqFGfrUDHfeSH+6Ao/n/WrdUoDuRn/vsW/Xj9KAJKQqCQTnI9DikkOI2Psaf5Keh/AkVlOWvLa5SXUZt9Gb/vo09X224dgWwm4gDJPFHkr2LD/gRp6jaoA6AYrPS97WK6HNQ2WrQLb6jLJC588zyW6WrCbEnDKW3nO0Efw/wihzMojsvstyZV1PziwgYoEMhYNvxg8H1yO9dNUcis23bjg55+ldLxD3aI5Tn/KmRZA9vM62+pNcSIImPmIckFePmwSDgZPHrV7S1Z7q9uhC8MNxIpjWRCjMQoDMVPIyfUA8VoYk/ur+Df8A1qASSQRgij20ZaBytGFZaPLcQ3S3d3eRwS3UxNptjVGUue+zfg9fvd6rahFdSXzLGl2hW+icRQWq+U6Bl+dpNpJOPRgR6Yrp6K2VV3uRymC9jMdHkjiieKWTUd5ZY/mx5+d/vxzn0rQ0eNra1NrJEyPA5DPg4mzzvB7k55981epruEQsegqXUbVh2OePnPo8ekfZbgXKyKGYxN5YUSZ3eZjbjA6Zz7U+5tJBaXpjt2LyaikgxGdzAPH83uAAea2UBGS33m5NOqvau+grGPbWjvqiPLbsVW+uJAWThcpgN/gabJBLGplaCYrHqzSkJGzNsIxuAAyRz2rYZATuBKsOhFOWYrxLx/tDof8ACl7RjsYF5bXbxanAiXIJvIrjfHHkvGAmdpZSrH5T8vPTpzU0Nis4jmU314Jb6J5HvLdYydqkZ2BFwBxyR6VvVGYyrF4W2N39G+op+1drCsUvEOnfarGNIUlO+5hLiFmUgBxk5XkYHcVWvoGsbWGKFboAT7nlJe7ljG0/Mm/cTzgdDjJ4rbjugWCTDy3PT0b6GpnjWRSsihgexqFUaSQ7HHWe6zltXvIbuUC9uHUy2+ZCCmQ2xAP/AB0fh1qx5c8VrFIkFxbQyXcsoaK2Ek0Ct93CFW25Oc/KcZ5xW7LZlJo5Qpm8okpk/MmRg49ePWnpIsgypz6juK0dW+thcpm+HYpodHVLhZlcTS8TqFYguSCQAByOeOK1KKKylLmk2NaBRRRUjAkDrxVbDSMd0hID8AYxTpFVrgblB+TuPenAADAGPpQAjOFxnJJ6ADNIiGTzQQyhxjkUH/XR/U/yNT0AV5bctGcyMSASBgdavxP5kKOP4lBqClsj+4Kf3GK/5/CgCPGy5mXsSGH4j/61O3KOpH51FfoPtELEAhvlOf8AP1pPKQdEX8qAJgQehB+lLUMIAkkAGBxU1ABRRSOdqMfQZoArJyI/9p8/zNWqrxjDwr/dUn+Q/rVigAqF+bhfZT+pH+FTVXkbEkrf3UH9TQBJb/6hT68/nzUlNjG2NV9ABTqAGyNtidvRSahjGJY1/uof6CpLj/UMPXj8zimx83Deyj+ZoAmooooAY3MsS+r5/IZ/pXOa1JaXev3yS32p2B0+0SSSezudoIYn5duCM8A/jXSoN14n+ypP8hXPax4HtNb1C+vYdY1G0mulWOZLeZfKJUALuUqc4wOMigB2j2v2XxFFbt4gv9QYWxuFhu0RsKcAHcAMHmtub55pB/eZI/6n+dZXh7wze6Tqtzf6prH9pzSwpBGfswi8tFJOOCc549Ola0Xz3K+8jv8AlxQBdooopDM+/u2huAqZPy5OKKeY1mmlZufnwPwAFFMRJRRRQAUUUUAFNUb72MdkUt/T/GnUlv8A8fc3+6v9aAJbl/LtZGHXacfWoUXZGqj+EYp95/qUHYyLn86SgBsn+rP0qeoH+6P94fzqesJfH/XmWtgooopAFFFFABUI++/+9/SpqgX+L/eP86cfiQPYdRRRW5AVAx8yT/ZQ8e5pJ5W8wRRYDEZJ9BT1UKoA6CgAooooAKKKKAGgNH/qun9w9Pw9KkSVX46MOqnqKbTZAu3LcbecjqKAJmUOpVgCD2NNVpYPuZkj/uk8j6GiLd5Q8z71PoAmimSZcoeR1B4I/Cmy2ySncMpJ2dev/wBeoHiDMGBKuOjL1py3LR8XI47SKOPx9KBjGZ4Ti4GB2kHQ/X0qTrVjhl7EH9arPatH81scDvGen4elAhaKYkoZtrAo46q3Wn0AQyf8fC/7p/mKWmzMqTIWIA2sOT9KTzo/7wP0oAVv9ZF/vf0NT1X3h5I9uThs9D6VYoAKS3O26lX+8Aw/kf6UtMzsu4m7NlD+PP8ASgB9+v7hX/uOG/z+dQbm/wCeT/p/jV2ZPNgdP7ykVWiffCjeoGaAGxBvMdmUqCBjJH9KloooAKjn/wCPdx6jH58VJUU/3FHqw/x/pQAic3B9lH6n/wCtU1RRcySH3A/T/wCvUtABVV+RN/tNt/kKtVVHKr/tSZ/XP9KALVFFFAEU/wB1B6uP8f6UQ8vIfcD9P/r0S8yRj6n9P/r0QfcJ9WP88UAS0UUUAFuM3Mh9FA/ma8+8Z2+mWWslLXRUlnKrNPJ9tkgLbm2jbtPJzXoVqM+a3q/8gBXDeKoJ/FOsXNlaaVaXH9mbdzz3DQysT82FK9B7+tAHR+FjbRWN5DatclLa6eIrcTmXbjH3Sex649c1pWQy4J/hjH5nk1l+GjYjwbC+l2xtYnRsxM+9lfODlv4jnv3rYtB8sjDu+B+Ax/SgZYo6daKiuW22shHXaQPrSAht+YFY9Wy35nNFPUbVAHQDFFMQlFFFABRRRQAUlt/x9Tf7q/1paLb/AI+Z/ov9aAFvP9XH/wBdFpKW8+7F/wBdBSUANbqv+8KmqMgHqM0sPEQx6n+dYTupFrYkooopAFFFFABUEf3B7806YBmRTyOTQBgYHSqgm5XCWxFc3MNnay3N3KkMEKl5JHOFRR1JPpVSx17SdTtzPp+o29zEHEZeKQMAx6D8ag8V2k9/4P1a0s42lnmtJEjRSAWYqcAZ4rndL0zVPtDXEcOpojz2e5tRkTzyqOxflTjYARx7mtiDqXv7WLT5NUklU22zf5ifMNvtjrVmORJQxiYOFYoSD0IOCPzrz+10TUo9GuLWHT7u3YWDxXPmyhknlLKU2DcQMDdzx171oXun6k7k3drfXkJlujCltcbWjdpSY3PzD5dvTrj0oA7LOSQOo6j0pcVwN74d1WNNVazW4S8vI7Nri5ifd5wUYlVAzABuPbg9akg0jUILCxjvYtV1CEROIVEqwywSlyQXw+MBcActjHQ0Ad1WZf8AiLRtLdE1HVLW2aRmRVllAJIxkfhkfnXNLb61Z+NJ9VeC8NugmEkS4aORAhMe35skkgcbRgmrkmgaqNY0qSyvfshisrgXVyIVkDySPGxGCe5DHPtQB1UciTRrJEyujgFWU5BHrmobWeO/iSeEsYOoLKV3YPoe3Gfyrk7/AMOX9tZ3lvo8twhjs7eG1fzOvzsZsLkDcV9faoLbRb+30ixju4dWv7UPKWtyyxTRsdvlk4flRh/4j97v0oA7m2u7e8TfaTJMuFbKNkYYZB/EHNLc3MNnayXN3KkMMSl5JHOFUDqSa4az0jV7fQbeC+tLyW2j+zCe0gmxI6LbBWVSGHSTGRkZxW6mn3UvgmazvYrh3kD7YVlHmrGXJVdx43BcD6jr3oA19O1Ox1e1+06ZdRXcG4r5kTblyOozVqsfw0NQFhN/aP2rb55+zi9KmYR7R9/bxndu/DFbFAEYR4Tm3OB3Q/dP+FTxXKyNtYFJP7rf09aZTXjWRcOM+ntQBYlhSZcSDOOh7iqzLLB97Msf94D5h9R3pVllg+/mWP1H3h/jVmORJV3RsGHqKBldWV1DIQR6ilp0tqGYvEfLfuR0P1FQ+YUYJOuxj0PZvoaBElFFFABUVxxFvHVCG/I1LSMu5Sp6EYoAtZz0qlENpkj/ALjnH0PP9antGL2sZPUDB+o4qOSGX7QzxBCGAzuOMEUDFopPJuT1eJfopNNjL7nWTaWRsZXvwD/WgQ+opuZIx7k/p/8AXqWoX5uF9lP6n/61ACwfdY+rn/D+lS1HB/qFPqM/nzUlACE4Un0qvEP9QD2Gf0/+vUs5xbv/ALppqD/SB/sp/M//AFqAJqKKKAIX5uB7J/M//Wp0H/HunuM/nUUpw0zf3VA/TP8AWrCjagHoMUALRRTJm2wuR1CnFAE1oP8ARUP97Lfmc15nfQ3vizU3v47fSGjSZ7cxJfSQXLqjlSGZTjnHHHQ16ZITb2TFE3mOM4UfxYHSvJLF0udWsrqbR9B8ua5t2d4hJFOolbOcZw23BB+lAHqYtLfT9NgtLSNYoIyqqi9ABz/SrNqMWseepG4/jzUF+c7FHXBP9P61cA2qAOgpDCoLrlY0/vOP05/pU9VbqREmVpXVEjQszMcAdv8AGgCMTyNkqi4yQMt/9aislPE2hogVtWsgw6jz14P50VVmTdG3RRRSGFFFFABRbf8AHxP/AMB/rRRbf8fE/wDwH+VAC3n3Yv8AroP5Gkpbz7sX/XQfyNcP4l8T6xpviS5trAA2trZx3DD7C0qkszg75A48sYQc4PegDtix3YCljjPFPiBWMA8GuZt/ENxHfXlvHay6jcG7kWGKNlXbEqRknJwOC/1OatW/ilL6aL+zrC4ubcrG0067R5G8ZAKk5PBycdKwablcvSxv0ViaV4jXU7qKNrKa3juommtJXZSJ0GMnAOV+8Dg1CJNcj8Ww2p1O1uLN1eaWAWRR4o+i/P5hySx/u8gGiwHQ0UUUgIpeHDYOAD0op0v+pf8A3TTaqnu0EtgooorYgLTl5z/t4/QVFcoIJI/K4Dtgr2qaz6Sn/pof5Co77/XW49z/ACoGNooooEFFFNYeYwjHTq30/wDr0ALCNzeae/C/T1/GpqKKACiiigAooooAKKKKACozHht8TeW/qO/1HepKKAFS6wwW4Gxuzfwmp2RXUq4DA9QarEBlIYZB6g0xfMg/1R3p/wA82PT6GgBzQSQ8w/On9wnkfQ0JIsmccEdVPBFTxTpNnacMOqngiklt0m5OVcdHXgigCOio2MkH+vGV/wCeijj8R2qQEEZByKACzOPNQ/wvkfQ8/wCNTySJEu6Rto6ZqtEdt77On6g//XqS8XNq5HVfmH4c0DD7bD/Dvb/dQ1AmWuJZMMFfGAwx0GKlByAR3ooEFV5GxJK391AP5mrFVX5Ev+0+3+QoAsINsar6ACnUUUARz/6rHqwH60kXM0h9gP5/40TfejH+1/Q0Qf8ALQ+r/wBAKAJaKKKAKrciT/acD+Qq1VVeRH/tPn+Zq1QAUyUbgi/3nA/Wn00DddRD0y36Y/rQBieMD4piW3uPCjQssYb7RC8YZnHGCuSOmDxnvWD4XkuNZ8RQT6rbaTJcWysHBtWguYOpHyt7/Uc1s+L9C8SatcwtoGspZ26xlZbdi0e5snDb1BPfpgdOvPEHhPwve6PqxudT07TvNaJs3tvcyzSFsjgmQZ5GfXpQB003z6gi+m3+p/oKuVTh+fUZG/u5/oP6GrlIYV434y1yfW9fnhRm+ywSGGKIdGKnG4juSc49sV7JXht8kuieK5SyZa3uvOjDDh13blP0I/rWtPcxq3sWl8E+ImRWGmPhhkZdAfyzxRXZL8UNL2rusrsNjkAKQD9c0VXNPsRy0+51tFFFYnQFFFFABSW/F1MPVVP86WmxHbfHP8UfHvg//XoAfef6tD6SL/OsXUfC+n6nqT3ty10HkiWGaOK5dI5kBJCuoOGHzHr61uXalrZtvJXDAeuDmo1YMoYdCMigDLl8N6fdSSNiaGTzTL5kEzRuCyqGGQehCrkdOKePDOmpcwTQxywiFUURRSssbhPu7lBw2O2a04v4/wDe/oKkrnTZoZeneHrDS7o3Fqsu4KUjWSVnWFSQSqAnCjgcD0q5FZww3lxdIp8642+YxOeFGAB6Drx7mrFFO4gooopARzf6o/UD9aSlm+6B/tCkq6e7FLYKKKK1JFs/9W//AF0b+dRXuTcwbRnaGPXHoKlsv+PfPq7H9TUdzzexg/3f6j/Cpk7JsaVyPc//ADyY/Qj/ABpGZtpHlvnHpVoxRnqi/lSeSn93H0OKz9pLsVyoriJo0Hl8jHKH+lSRJsX5uWPLVJ5K9iw/4EaZjbIV3EjGeaaqa2aFyjqKKK1JCiiigAooqtHvaNW81xkZ7f4UAWaKh/eDpJn6qKN0w/iQ/wDASP60ATUVCZZFxuVSMgcH1NTUAFFFFADHjV8E5DDow4Ipy3DxcXA3L/z0UfzFLRQBYVldQVIZT0I71Xe12ktbEIe6H7p/wqMRtG263bYT1U/dNTRXKuwSQeXJ/dPf6HvQMrGXbPDvUo6vgqfQ8cetX2AZSD0IwaSSNJVxIoI7e1OpAUrcnyFB6r8p/DipKYo23Eyf7W4fiP8AHNPpiCqq8qn+1Jn9Sassdqk+gzVeIYaFfRc/pj+tAFmiiigCGTmdB6KT/KnQf6kH1JP60xzidj/dQf1qSEbYEH+yKAH0jHahPoM0tRz/APHu/uMfnQBFEMNCvopP6Y/rVmoU5uD/ALKfzP8A9apqACiAZunP91APzP8A9ailtRkyt6vj8hQBX1HXLDSbm3h1CUwfaCQkjKdmfQt0BqxD9q+13DTSQtasFMAUHcvHzbj0Izgj8a4fxV4h0HUQUbxSsdqi7Zbe2tlnyc9ScH6YrY8HQ2dl4PMWl/bjboziM3ybHPA6DjC+nAoGbmn/ADCST+8R/j/7NVyq9ku2347sf54/pVikA2R/Lid/7qk1yHjDw2uraPHNAn+n264jI/5aDuh/p6H6muru/wDj2Yf3iF/M1BOR5kYJ7k/pj+tUnbUmSTVmeC7gOpx7HiivSbr4dafeahc3U1xIPPlaRUVcBAeSPfnJ/Git+eJzezkdrRRRXOdQUUUUAFRzZULKvWM7vw7/AKVJR160AWQQQCOQelUox5cjw/3TlfoaktHwpgb70fT3XtTrmIkCWMZdO394dxQMSH7p/wB41JUcBzCpHfJ/WpK5o7FvcKKhkyZQMkfL2NGG7SN+lNcz2QaE1FRKzeYFLZBBPSpaAIpeqf739DRRJ/rE/E0VdPqTIKKKK1JHWX/Hon1J/U1FNzqUY/2P8f8ACpbL/jzi/wB3NRPzqX0Qf1rOp8JUdyxRRRWYwqE/65voBU1Q/wDLR/r/AEFC+JB0YtFFFdBAUUUUANc4jY+gqKMYjUegFPnOLeT/AHTSdKACiiigBr87B/tj+dT1AeZYx/tf0NT0AFFFFABRRRQAU10V12uMinUUAMWSWD1lj9P4h/jVqORZUDRnIqCi1O2aZPcOPxGP6UASy28cxywww6MDgj8agMM8f3GEq+jcN+fSp55vIj37SwyAQD60kdzFI20Ntf8AusMGkMqTTDynRgUcjAVhilT/AI+P91P5n/61XmUMMMAR7ioXtEZtwZ0OMfK1MQ2ig2so+5Pn/eQH+WKaY7le0b/QkUAV5efP/wC+R+X/ANerQ4qBoZRGS0ZyXyQpzxn/AAp/ngffWRfqhoAkqKf7gHqw/nmlFxCf+Wi/icUySRHkjVHVsHJwc9qAHRcySH6D9P8A69S1FAQQ/qXP+H9KloAKdaqDaLnkPkn3yc1FM22FyOoU4q1GuyNV/ugCgDhde+Hj/Y7hfC0y2qTsHmsZWPlS4IPB5Kk47cV1yyXEmkwNd23kTuEMsKHfsPUjI61eopDI7ZSltGrDB2jP1qSiigCvdnCx8MRvycAnsaiaaFvvgn/ejP8AhV2imBn7rT+6o/4CRRWhRRcRWooooAKKKKACiiigCORWBEkf305HuPSrcciyxh06GoKYjfZ5+f8AVyHn/Zb/AOvQASoYJhhmEb8Dn7p9Kd8/aRvxArJs765vPGWs6bcS7rSCCBoo9oG0tuyc4z2HWs6PxK2nzeIZdVkklttPuo44ljjXcqso+meTnk1PsY9EL2p04B3ZY54x0payLHxLaX2qfYPs97bTNGZYvtMBjEyDqVz9e+KwbnWdRuNE0Q6bqsscl/qDQPcyWsW7b8/GzleMD8quNO2iFKotzs8lZA20kYI4p/nDurD8K5a1vtV0zxMmkalqKanHPavOJRbrFJCV9QvBB7VVk8XXNn4d0W6t4LnUjfSKrzyQIhILEY2q4Ac9uo45qHRbd09w9qktUdiWDyAjOAD1GKWucXxNct4wi0n+y7lYHtxIXaMbgSfvH5/ujoeM5qabxfp0N08ZhvHt4pfJlvUgJgjfOMFvqcZAxTjTcUDqRZu0jHCn6Vkf8JNaHXpNIjt7yW5jdFdo4dyKGGQxYHhfc1qynbC5P901Vmhpp7E9oMWcP+4P5VB11KQ+iAVZgG23jB7IB+lV05vp/bA/SsamxcSeiiioGFQr95j/ALRqaoE+6fdj/OnH40D2HUUUVuQFFFFAEdx/qT7kD9aSif7qj1cUUAFFFFACdbhPoT/L/GpqhXm4+if1/wDrVNQAU2SQRrk8k8ADvRI4jjLHnFRKpLb35Y/kB6CgCSOTfkEbWHVafULLuwQcMOhp8cm75WGHHUf1oAfRSMwRSzHAFQ7pSd449EPp/jQBPTVO29jP99Sv9f8AGhHDrlf/ANVNmO0I/wDccH8On9aALFym+1kUddpx9agwk0SllDAjPNXKowfLGY+6MV/WgByrLF/qZOP7r8j/ABpwuJx96FW/3X/xpaKAFF4B9+GVf+A5/lSi8tz1kC/73H86bQRnrQBOsiP9xlb6HNOqk0ETdY1/Kk8hB9wuv+65FAFi6A+yyZAJ2kDIqoIYx0UD6cU6WOTZhZJHGRlSRzzSbyOsbj/gOf5UANS2ia5QFc5yTkmrRs1H+rkkT/gWf51WR388NDjIU53gj0qwLmVfvwZ90b/GgBrWspwDMGXIzlOetW6hjukkkCbXVj0DLU1IYVWlnkF2kSbduRnI5PX+gqzVNPn1Jj/dJP5AD+poAuUUUUAVZZpBM+2RURMZyueaj+1OP+XiD8Vx/WsfxL4jtPD+mvcXOZJZpSIYVPzSFSM/QDHJrg3+KOsmbdHZ2KxZ+4yuzY/3tw/lWc6sIOzOStjKNGXLN6nqv2qT/ntbn8/8aK4uw+JeizWitqSyWdxnDRhDIPqGA6fXBopqrTfUpYqg1fnX3ncUUUVodAUUUUAFFFFABSModSrDIPUVn6xrEekQRfuZLm4uJPKt7eLAaVuuMngDHU1V0/X7ibVF03V9MfTbuWMyQjz1mSVR1wwxgjPQinZ2uTzK9ilLJdeHvF15qL6feX9pfW8UYazj8x0ZM8MvXnPWs280rUrnw3rt7JYTxzalexzRWu3dIqKVGSBnBwM47V2DXtjNdNY/bLc3I5MImXzF99uc0v8AbdjbM8V9f2sTRsEZmnVcMRkAgng47VXM+xDin1MfUba5bxvos5gkMMVvcK8qqSqkhcAnsT6Vzw0Ke88M+HbG+06d411JmuYmiYbUO/lu4HI5r0Fr6wluvsTXVu9wVz5HmKXI9duc1Sm1Gys5GjOo2nyv5ZjluFVlbGdvJ64I4PNCkxuCet/60/yMDTdETw34lvLfTtPb+z9Qt96SRxlvJkUYKFuSAeoz3qjHYX0Hw80HNhcvNZXEU01usR80KGbOFPJPPSuzN7Ck6wTOsUzKXWJnG5lHUgZyR70q3to4lK3UBEJKykSD92RyQ3PB570czFyLYw5/tEfjmxv/ALDdvbXNl5G9Is+Sxbd8/wDd4rm4NBe2judJ1Ow1+5Mk7lPsdwwtZUZsgnnavXkGu/t9Qs7uEzWl3BPEDgvFKrjPpkGsnVfEN5aaxa6bpWlDUZriFpubkQhQpweqnPWmm9hSjHdiaJZzW3ibXHeGVIXMAid1OHATBwe/4Ve1DSxreyMXt9aRxEkvZ3BiLH0OOtVm1K8ttDvNR1/TTZfZhlLeO6Evm8ccgDGTxirug61Hq/h2PUYrfyDtYPbk8xsuQVJwO49Kl33LXL8JpKBb2wDOzLGmCznJOB1J7mq9tuLSSPwzkEj09vyrlIvGOq32jR6rL4addMK+a7w3yO+0dTsKgnGOlXta8XW2iaba3yQtdpeOpQIcFY9oLOeDwBWdSErpeZUakbNnS0UxJEkRXRgysAQQeoNPrE0CoI/9WvuM1KxwpPtUaDCKPaqh8QPYWiiitiAooooAim+9GP8Aaz+hool/10Y9if5UUAFFFFABH/r3/wB0D+dS1FD9+Q+4H6f/AF6loAOtQMpg5HMf/oP/ANap6KAIutIy7sYOCOhHakdfJ+Yf6vuP7tOoAikDuF3nB3ADb9etKS5Vk6SL1x3+lVZdY0oTG3l1KzWXOPLNwobP0zmriBQvyndnknOc0xCLLtUeXGfLHX1qVwJoGCnIZeDTaYT5OXX7v8S+v096Qy7A/mW6P/eUE1UuVBuivk7jgNkYqeyP7p0/uOQPoef6025G24hf1yh/mP5UDK3C/wDPVPzx/hSrIT9ydW9mA/pirNIyq33lB+ooEReZKOqq30OKXz8fejcfhn+VL9nj7Lt/3SRSeSR92Rh9cGgBRPF3cD/e4/nTwQwyCD9Ki2SjujfUEf40wx85aDn1UigCzRVXIX+KVPrn+tTwszR5bnk4OMZFAD6KKKAEiGbwf7KH9T/9arVV7YZmmb6L+mf61YpDCqdl800r/wCeST/hVqRtkTt/dUmq+nrtgP8AvY/IAf0oAtUhO1ST0AzS1HOGa3kWMZYqQKAPGPiLNLJ4pSOXO2O1j2Dt8xJJ/P8AlXT6P4B0K88GQ3c7sbia3803QkIERxnGOmB0OfQ0fEXw5JqVpHqdlby/abRNkiBMmSPrxjuDk/ifavNY9Qu1s2toruZbZ+TEshCN+HSuCpaFRuSvc+crtUMRKVWPMnsV6K6PRvAes67pqX9s8FvBISI/PyC4/vDA6f4UViqM2rpHFHCV5K6ie1UUUV6x9eFFFFABRRRQBzPiZ1stf0HU7ltlnBNJHLIfuxl1wpPoM8ZrQXxBp9xrEdhZMt7J5TSvJbsrrCB6kHgnsK1JI0ljaOVFdGGGVhkEe4qK0sbSwjMdjawWqE5KwRKgJ+gFVdWI5XfQ8yuLy2l0zTLmx/sqz36lG0dtHue7UmTks5bOfUEfjXQxaZY3uqeMJLy0hndXAVpIwxUeQDxnpzXUNpOms8jtp9oXkYM7GBcuQcgk45INTLbW6tMywRBpzmYhB+84x83rxxzVOZCp9zhLXT7W28N+EryG3iS4a4ty0qoA5LKd2W6nPvUqHw6dV8W/259i87zvl+0bd+3yh93PPXPTvXaiztRDDCLaHyoCDEnljbGR0KjHGPasqy8PRLqWqXGpQWl0t1dieAPGHMeEVf4hwcjtRzByNWt/Whzui3BsdW8LT6zMLfdpEkfmTsFGcggEnvioYzp2p6T4iaXUI4LeXWlMVxs8yJmAQgNjjYSMHkCu5utNtL2MJdW8cyBtwWVA4B9QGBANImnW8UcscSIiTHMqrEgEhxjLDHPA70cwezexh+F5YT4lv7eWy09bxYI2kudNkJhkXJABQ8K36471H4htry7+ImmR6dqDafN9glPnLCsnG4ZGG4robTT4rCIx2Cx2sZOSkMKICfoBTzZQPOs8sSyzKpVZXUFgp6gHsPalza3K5Pdscn4gbVN2l6Isv9vXRmN5Pu2W4aNCMKSBgfNj64pdEuL6317VbHVbP+z/ALchvYIFuBKCQNr4IA9jiutW2t1uDOsESzFNhkCANt64z1x7UPbQSzJNLBE8sYIR2QFlB6gHtmjm0sHI73ucN4V0DUdT8F2Uc3iC4jsJ4SGtYreNSFycr5mN1PmF5c+JLpNI0ZNRsNOtf7ORWulhCMQC+Mg54wK7eCCG1gSG2ijhiQYWONAqqPYDgUQ28FsGFvDHCHYuwjQLuY9ScdT70c+ovZ6JGD4MuJJtAFlfxhbzTnNrMjEMRj7vPf5cc10UIA34GBu7fQVGlvBFNJLFDGkkpBkdUAZyOBk9/wAacAy52tjJzjFYVI3d0jaGis2SS/6l/wDdNNprb2UgsuD/ALP/ANenUqad22hytYKKKK1JKGuan/YugX2p+UJvscDzeWX2Btozjdg4+uDXPaT43k1e1EkKaZLi7t4Gn06/+225EjYIEgRPnAHIxxkdc10Wt6adY0G+04TeQbqB4hKU37NwxnGRn6ZFZMPhi9mn+16xqdvcXZktyWtbIwR7IXLBdrSOcncfm3emBQBZj8T6PcTTsl5tS2iZ2eSGSNWUEZZGZQJFBwMoSMnFMPizRxarP51x80hj8n7DP54YAE5h2eYAAQSSoABBzg1RXwjK8QtLzVPNgs4PIsBHbbGhGVYFyWIkYGNegUY6jvVp9H1l3gvDrVt/acW9PN/s/wDc+W+3KiPzNwPyAhi55zxjigC1qmr/AGTQzqVgLW4i2CQS3F2LeBI8Z8x5cNtXHcKevSp9I1D+1dIt77yvJ85d23duHUjKtgblOMg4GQQcVB/Zd1Z6HbWOi6gLWa1VVSaeDzlcAYw6BlJB6/Ky898cVPpOn/2Xpsdr5vmsGd3cLtDMzFmwuTgZY4GTgUAXIOjn1c/4VLUcH+q+rE/qakoAKRmCqSxwB1NLTJY/MTGcEHI+tAEeTKwZhhR91T/M1xXjnV7x7yHQ9LEpeVN8oiB3PnOEGOexJ/D3rtVYklWGGHUV5147jutN8UQalbSPF5sQEcqEgq65BGfoR9eauG5nU+Ehh+HGtSacZisEcnVbdn+Yj69Afxqbwnf3+h66NH1JJIo5gdkcoPyMASMexwRxxnHvW7Y+LHbR4nn1ywBMYMryRHz0bHKiMcNz0PH0NYGlyT+IfHtndec04ghikmkIOFKxAMPb94Tx9TV3bTuZ2Sa5T0jcAu5uBjvSxoWYPIMf3V9Pf60jKHXB47gjtTo5CTsk4f8A9CrE6B8B23ki/wB5A35cf4U69H+j7/7jBv1/wqMnbdQt6kqfxH/1qtSIJInQ9GBFAEFFQK0qqB8j4+o/xp3nMPvRH/gJBoAloqPz0/iDL9VNKJo26Op/GgB9FFFABRRRQAUUUhOASe1AD7Qfumb+87H9cf0qeorUbbWPPXaCfxqWkMhuz/orj+9hfzOKLQf6Kh/vDd+ZzUd+22Ff97P5AmrEa7IkX+6oFADqRmVfvEDtyaGYIpZjgAZJPasOy1qLVrRrieBrdIGdnR/m+TblX6d1IOPwouS5JOzN2vJ9Z8FRyfE23sYY2Wwv83ThRgIoz5ij0yQPpvFd3/a2lC1S5ilm2SE+X5MMpZ8dSqquSvI+YDHvSza3ZWojI1B38yLzkCQtMWTON3yqTj19O9ZzjGa1OavTpV0lJ7O/9epqLp9rGipHCqIowqqSAB9BRVGXXLa3EfnX9inmIJELybdynoRz0orS6OjmiupdoooplBRRRQAUUUUAFFFFABRRRQAUUUUAFFFFABRRRQAUUUUAFFFFABRRRQAUUUUAFFFFABRRjPSg8deM9M0AQDmaT6gfoKdUccsbXE0QkQyqdzIGG5QehI6jpUlABRQTgZPApHOI2PoKAHQf8e6e6g1JTYxiNR6AU6gApGYIpZjgClxjrUMwIZXblB1HofWgBBl23vwf4V9B/jVLVNKt9btJbK+BCsMxkdVbsw9x/nrWgOenNRytGoUSuqbmCoWYDLdgPemI8UutOubTVG09033AcIoX+PP3SPY5Br1Xw9oUfh7T0hUiWabDTSAcs2P/AEEdv/r0TaBa3XiW31YTKZLSIwtEADlscEnsQGPHuK1402gbjubGM1cpXRnCHK7iswVST0pY0JPmSDB7L/d/+vTCcSB2+ZB6fwn1qwDkZHSszUiuOISw6oQw/A5q8DkZHSqrDcpB6EYqS0bdaR56gbT+HFAFVIY/MlVlGVc898Hn+tO8gfwu6/8AAs/zp8g23rf7aA/iOP8ACnUAReVIOkgP+8v+FNKSH7yI4+tT0UAVfLC/8sWX3Q/4GjeF/wCWsif7w/xFWqKAIElPmKN6uGPYcip6QAA5AGaWgAqOc/uHx1IwKkpknJjX+84/x/pQBbA2qAOgGKWiikMp3vzSxp/nkgf41cqnJ8+oqPQgfkCf8KuUAZ+uW9zeaVJaWe5WuCInkUgGNCcMwz3AzjrzWPJo15Z3dysN5cagtzYtA/n+SnlkA+XjYqDByw79q6iqhY/aZSBklgo/AZqZW3ZDpqTuYGpaRM82nXJt7u4WC1MEkNnetbyKTtOQQ6Bhxggn0xVqw0x7S4XyrbyIRY+UFMxkKtvLEFicnr1P51r7mHWNv0NHmDvuH1U1PNC+4vYpO5yEml+Ko7HT4dMuIbdIbSOOSN2UkOM552nPbvRXY0VXIu5l7Bd3942iiirOgKKKKACiiigAooooAKKKKACiiigAooooAKKKKACiiigAooooAKKKKACiiigAooooAydShjvdZsbK7USWrxSyNE3KyMu0AMO4AYnB/pUMkUGn3dnb2ToYjfgGDarCD90x2qMfL0B4x19DWrd2VvfRqlyhbadysrsjIfUMpBB+hpkemWcSxKkP+pk81CXYtvwRuJJyxwT1zTuTYwdKudRu76K9WwmWGd5PMZltxGi88qQ3mE5VQc9fQVLaX19FFptzdXRuReQMzxeUiqpCbgVIGc8YOSR6YrRttMs45hdRxFZGJfHmNsDHqwTO0E5PIGeamSyto1tgkQAtRiH5j8gxj1549adwszJme+Xw/PfS3qTiayeUwvCm1CUyNnHI9Q27NR6zqN3bQSyWRuJBbW6vJHBDEI1yM/vC5BII7JyK010bT1WVRbkrKjRlTK5Cq3VVBOEB/wBnFJe6PYXmTcW5feqxMBK6q65wNwBAbHYnJFF0FmV7q7vYtR8ySeS3td0YjKwpJCwOMhz99Tk4B4HTrVjWVE0+nWkpP2e4uSsy5wHARmCn2JA471PJpFjLcid4TvyCQJXCMR0LIDtYjA5IPSrFzaw3kBhuYw6Eg4yQQR0II5B9xSCzMqaKDRw8OkvHbNPJDH9nUDZBuYjeE7Z/IkfWorm8v7Np7JbwyyI9uUuJIl3bZH2lWAAU9D0A61px6VZR2sluIS6S48wySM7OR0JdiWyO3PFQwabaIjRiJseYrnzJXdyykFSzMST0GMnFFwszE1NLuS2ns31CcfZ7y2KSLHEGIdlOD8mODyMAe+am1e/uoLl7i3+0zrZuisFhhEaFtu7ezEOSQ38HTPStqbT7W4WcTRZ+0bfMIdgTt+6QQeCPUYqC40SwupC80BYtt3gyvh8YwSN2CwwPmPPvTugszOuGu7VtZvbe8Ma29xv8jy1KyYjTIYkZ57YIx70LqGrXGpObS1umhiuvJ2j7OIWQEBixLCTdjJ4GOnBrSn0eylujctb7pGkEkg81wshAABKg7TjAxkGnHS7WS8N3LEfOZgzBZGCMR0JQHaxGByQTxRdBZmak969mTbGRF+23CytaRRmQKHIBCsMH3OCa2NLk87TYpfOE28cuEKZOcfdPIPqPXNQLpdlOjRyRMjLI0g8uV0ZSxyxDKQefY4q9BBFbQJDboEjQYVR2pDVySi0OGmT0fcPx/wAmimxnZej0kXH4jn+ppDHXYw8L+jbT+I/+sKKlnAa3fcu4AZx61njbtBCyICMjbnH6UAW6KrLIc4ScE+jAf/Wp/mSjqit9DigCaiovPA+8jr+Gf5VIrK65U5FAC0UUUAFNAzdRD0y36Y/rTqIRm7Y/3UA/M/8A1qALNFFFIZTh+fUHb0LH+Q/oauVTsfmZ39VH6kn+tXKACqUPzSbvVnb9cVcY7VJPYZqpbDCpnqIxn8azqfCOO5YpkoJTgZ5H86fRWbV1Yoi3/wCy3/fJop5YDrRT9pLuHKhlFFFdBmFFFFABRRRQAUUUUAFFFFABRRRQAUUUUAFFFFABRRRQAUUUUAFFFFABRRRQAUUUUAFNc4jY+gNOqOf/AI95P90igBkYxGo9AKdRRQAU1/vIPVxTqaeZo/qT+hoAnooooAKimUBd+drL39fapGYKpLHAFQ8yMHcYA+6vp7/WgALkRbypzjOKRdwkGW3bl3H0H0p9NWMIxI79vSgBC5Eh4yqgEkdutPBz0qNZNrSbeXLYA/AUoxDGSTwOTQASYADchh90jrn0qdc7RuGDjnFMjjOd7/e7D+7UlABUcp2mOT+44J+nQ/zqSmSrvhdfUEUAXOtUbf5Yth6oSv5GrcD+ZAj/AN5QaqyHybmTcG2vhgQM9sH+VAD2VWGGAI9xTPs8f8IK/wC6SKVZo24Drn0zT6AIvJYfdlP/AAIZp0cZTcWOSxycDFPooAKKKKACltRlpm/2sfkBSU60/wCPcN/eYt+tAEN9c7JLeKKUB2mUOAedverNw2y2kb0U4qheaQt3qSTPxHj5x/exVy64two43Mq/rT00ASyXbG/+/j8gB/SrFQ2n/Hqh/vZb8zmsuS7vP7dRPKcRqPujnKk43HFJK4GpdnFq+O+F/M4qp5WD8ruv0Y1ZvD+7Qf3nH+P9KhpWTQxP3w6TN+Kg06OWYyMpKNgA9Mf56UlLBzJKfcD9P/r0uRMLsSVZXYEBRx60VPRWDw0G7tstVGhtFFFdJmFFFFABRRRQAUUUUAFFFFABRRRQAUUUUAFFFFABRRRQAUUUUAFFFFABRRRQAUUUUAFRz/6nHqQP1qSorggKmTgbxQAUUBgehB/GigApBzcJ7KT/ACpaRObg+yf1/wDrUATUUUUAIQGUhhkHqKgwYWCtyh+63p7Gp2YKpLHAFQ8yMGcYA+6v9TQA6mJIHLY6Dv60SjIGQSufmA6kUxiGjlZejcLj6AUASgA/MMc9x3paZgJNtTkdWH92n0ANUmFgvVGOAO6//Wqeq+4RyFnBY9Ex/KjMqneTuPdO2PagCxRSI4dQynINLQAtkcQsn9xyP6/1pt3u82IKwAbI5Geev+NFudt1Kv8AeUMP5f4U69H7lX/uOD/T+tHUZXZJMfMqOPrimbQv/LORP93/AOtVqigRWEmDhZ+fRwKf5rpy4Urnkjj9KlIDDBAI96aIYwwIRQR6CgB9FFFADXbbGzegJqeBdlvGvooH6VWn5hK/3iF/M4q7QAVVvmwqe25vyB/xq1VK8+a4VPYD82H+FIZbjXZEi/3VAqBLYrqMtyzAh0CqPTFWaKAK10u+WJNxXq2R+X9aj8h+0p/FRUj83h/2UH6n/wCtTqYiAxygffQ/UEU6DAU5dSWOflOadMdsLn0U/wAqhEabQCqnjuKALNFVfJj/ALi/lRQBYooooAKKKKACiiigAooooAKKKKACiiigAooooAKKKKACiiigAooooAKKKKACiiigAooooAKCAeozRRQAwwxnrGp/4CKTyIuyAfTipKKAI/ITsXH/AAM0qRBGJBYkgDk0+igAooooAjljLgFTypyAehpqOHHoRwQe1TVHJHuO5OHH6+xoASmumU2pheQenvmmpuMhy2ccMO2fanO2MBRlj0FACqoUYH4k96WmkNF/rDuU9Wx0P+FOoAKCQqkk4Aopq4afEnblB2PvQA6FCGZyNu7+H+p96loooAYDtu4m/vZQ/wA/6VZnTzLeRP7ykVUnO2MP/cYN+tXqBlOJt8KN6gGn1CN0GYyhYBjgqR0zS+en8W5fqpoES0U1ZEf7rq30NOoAKKKKAGMN0sK+r5/IE/0q5VVPmvE/2VJ/kP8AGrVIYVSb59Q+jgfkpP8AM1dqlb/PeFv98/rgfyoAu0UUUAVV+a4mb/aC/kP/AK9PqOHlWb+87H9akpiI7j/j3f3GKZUkqGSMqpAOQefrUeyYfwof+BH/AAoAKKTEv/PP/wAeooAmooooAKKKKACiiigAooooAKKKKACiiigAooooAKKKKACiiigAooooAKKKKACiiigAooooAKKKKACiiigAooooAKKKKACiiigCOSMk704f+dLHHsyW5c9TT6KADr1qBlMHvH/6D/8AWqeigCLPGe1NRfOYMfuA5H+0fWl+zjdjd+767P8APapqACijp1qu8nmA87Yh1P8Ae/8ArUALJJ5iskaggjBYnirsOfJTJyQACapJH5gyw2p2Xpn6/wCFT2fyiWMcBXyB7HmgCOZM3rAuw3ICMH8D/Sk8qQfdkB/3l/wqW6G2SF/9oqfxH/1qKAK7RufvxI/0P+NOhVlY/KUXHQnvU1FABRRUF9fW2m2Mt5fTLDbwrueRugFNJt2Qm0ldk9uM3Mp9FVf5mrNcZb/E3winmF9VILPn/j1m6YA/uV02k6zYa7YC90m5W5tyxXeARgjqCCAQfrWtTD1qa5pwaXmmRCtTm7Rkn8y4x2qSegGaqWA+8T1CqPx6/wBanuji1kx1K4H48U20HyOR3c/px/SsDUnpHbZGzegJpazdf1ex0XR5brU7hbeH7m4gnJPYAck9elVGLk+WKuxNqKuyxAu23QHrtGafXKf8LN8I/wDQVP8A4Czf/EV0ljfW2pWMV5YzLNbzLuSRehFa1KFWkr1IteqaM4Vac3aEk/Rk9FFFYmgUUUUANooooAKKKKACiiigAooooAKKKKACiiigAooooAKKKKACiiigAooooAKKKKACiiigAooooAKKKKACiiigAoopsEC3EfmzDduPyqTwBQA6imbPJuDEpJQruAJzt56U+gAooooAKKKKACiiigAoJwMngUhIVSWOAOpNV3feNz5EfZe7f59KAFd/MGW4jHb+9TkjLENIMY+6vp9aWOMlg8vX+Ff7v/16loAKbEdt77SJ+oP/ANenVHIdkkT/AN1wD9Dx/WgCxchTbvvXcAM4+lURgDIWVR7Z/pWkQGUg9CMVTt8+SFPVcqfw4oAh8zHScj2YCpElbzFVirBuhUYxU3XrSBFU5VQCfQUALXKfE3/knepfWH/0cldXVDXNMttY0S6sL5WaCZPm2nBBByCD6ggGt8PNU60JvZNP8TKtFzpyiuqZyehW2oNpGlvDrSQ6Z5Fr5mm/YoGEqeWnmneWzgnfkkZGGwDgZX4L/wDIn3v/AGEH/wDRUdPX4O6ICrf2nq4ZV2giaPgeg/d9K6rw54csfC+lfYNN8wxmQyO8rAs7EAZOAB0AHA7V6OJxNCVGUIO7k19lLa/3+u5xUKFVVIykrJJ9b72+4v3Z/dov95x+nP8ASltBi1jP94bvz5qK+bG3HUKzfpj+tWkXZGq+gxXjHpi1558aP+RPsv8AsIJ/6Kkr0JXV13IwYeoOaxPFHh+y8T2UenaiZBGG81WiYBkYcAjII6MR0rqwdWNHEQqS2TOfE03VoyhHdnL67bagukao82tJNpnkXXl6b9igURJ5b+Ud4bOAdmCBk5XIGTjS+GP/ACTrTPrN/wCjnrNPwh0UszHUtWLMNrHzo+R6H5K7DR9KtdD0mDTrBWEECkLuOSckkkn1JJNduKr0ZUPZwd3dPZLo+2713OahSqKrzzVtLb37F2iiivJPQCiiigBtFFFABRRRQAUUUUAFFFFABRRRQAUUUUAFFFFABRRRQAUUUUAFFFFABRRRQAUUUUAFFFFABRRRQAUUUUARzZZRGvWQ7foO/wClXAAqgAYAGBVaAeZdM/aMbR9T1/pUl25S3IX7znav1NAEEZ8ySSbsxwv0FSUiqEUKvQDApaACiiigAooooAKKKKAIplZtpC7gDyuaVIzu3yfe7D+7UlFABRRRQAUydd8DgdccfWn0UATxv5kSOP4gDVUDZczJ6kMPxH+IqSyP+jlP7jFf8P0ptwNt3G395Sp/Dn/GgYtFFFAgpkoyqr/edR+tPpv3riEe5b8h/wDXoAt0UUUhlK5+e62+yL+bc/oKXWIpZ9Fu4oJlgleFgkjHAU44yewpB899/wBtP5L/AImsTxre2Umi3thdXS2rKkcjPOjeUyliNpIHfaQfqKYHLaFp17Jqelm2dfMt3ACWd6JIbeFT8+4A/MXJr0h+bxv9lAPzJrznwbp1lP4wS40ldJ8m182TzrSQb5FfgDZ2Az1969FXmaZv9rH5AUCH0UUUAFFFFABRRRQA2iiigAooooAKKKKACiiigAooooAKKKKACiiigAooooAKKKKACiiigAooooAKKKKACiiigAooooAKbI4jjZj2FOphHm3EcfYfO30HT9aAJ7aMxQKrfe6t9T1qGU+Zd4/hiH6n/wCt/OrLuI42duijJqpCCI9z/ec7m+poAkooooAKKrOxZmYMchtq4P4fzqzQAUUUUAFFFFABRRRQAUUUUAFFFFACW523Uq/3gGH8j/SpLmJpYxsxvU7lz39qhkQthkO11+6angnEykEbZF+8vp/9agCCOQSA9mHDKeoNPqSa3WUhgdkg6OP881CVuE+9Gsg9UOD+RoAdSRDN5/up/M//AFqZ56A4fMZ9HGKktcNLM45GQufwz/WgCzRRTZW2Qu391SaQypa/Ncbv9lm/Nv8A61c1f+RfalqE8HiHVNMa0uEt3CsrQs7AYwpUnvjr2rp7Jdpf/ZVU/IZ/rXK6h4Cv5765m03xHJaQ3F39raCW0WYB+vXI49B/OmI0vD8N1Frl9He6pa6hLboqsY7EQyJu5GWBOQcfpWxBzGW/vMW/M1maBot5ov8AalzqV8l9cXcolMyQ+V8oQADbk453d61IV2QovooFAD6KCcAk9qhFzkA+VJg/T/GgCaiovtA7o4/Cg3KD7wcc4+6aAJaKi+0R/wC1/wB8H/CigB9FYVto3iC0uoZR4h+1pvHnxXFsArL324OQfSti8vLXT4vOvrmG1izgPNIFBPpzWlSMYbST+/8AVImnzTduV3/rsS0UyCeG7gWa1mjnhb7skbhlP4ikiuIJ2KwTxSMvVUcEisXOKaTe+xpyy102JKKrXGpWFpOkF3fW0Ez/AHY5JVVj+BrMuNYlbxXo1tZXUclldxTM/l7WVyo4Ib2PoauScUpNaGMqkY/l95uUVVXU9Pe+Nkl/bNdjrAJlLj/gOc1aqU09jaUZR+JWCiiimSFFFFABRRRQAUUUUAFFFFABRRRQAUUUUAFFFFABRRRQAUUUUAFFmNweY/xnC/QVHMT5e1fvOdo/GriKEQKvAUYFAFe7O7ZCP4jlvoP8iimKfNnkl7Z2L9B/9en0AFIx2qSegGaWo5/9UV/vELQBFGM+Up6/eP8An6mrNQx8zMf7oA/r/hU1ABRRVTAZg/8AE0nB9Bn/AAFAFuiiigAooooAKKKKACiiigApjxh8EEq46MOop9FACLdPHxOhP+2gyD+FTR3EUv8Aq5FJ9M8/lUVNeNJPvqG+ooAtkAjBGR701ESMEIoUE5wBiqmxoxmOaRAOxO4frVqBme3jZ/vMoJpDH1Dd/wDHsw/vEL+ZxXD3HjvUUvb+G0t7OWWGVgIZXKeRHGDvZz6k8AV10N4L/TbK6CGMTqshQ9V+XOKYFi2UPDJuGQ7tn3HT+lcHejS9P8ULZaXo13GrTpBPd22pSW+x35xsB+fgZ54rv7UYtY89SuT+PNeaeIrVde1O41i20OV7SxkaOa5hvjFJNsGDhMY4yRk80CO20e6jvPDEc0MtxKshZc3DhnHzkYJHXH8q06pWCWiaLp6aamy1ZUaJfRcZ5q4XAOMEn2GaTaSux6sSTiJ/901CnEa/SpWYFGDK2Mc8U0W6YGGcf8CpKUZbA00NqOf/AJZj1cVN9nH/AD0k/MU1rXdjMr8HI6f4VQgopfIb/nq35CigDhdfvvDevbpNM+06hq06eXDFD5i7T0BYcAAd6ddWttoevaO3idRNp0OmiCOWRDJFHcZ+Ykc9R0P09K7wAKSVUAt1IGM0dQQRkHqCK3xNX21KNKN0k76u/wDloVg39XqupLW6a00389dTiNEiNxH4juNChePSbiSM2qBCocgfvCi9gf8A63bFbbSWVzcWC6RGBMkoZiiY2J/EGNbuT+VKDz9TzXhVsu9pPm5l0vp2bfuu+m/n07HdUxvPJyt+Pklr328upwCzaPY3GuweKLcPqE9w7RmSEu00ZHyCM44/p+HFXR1mf/hFltjtmaxvBGfRsNj9adqevanDfeJYUu38uFv3QYBvLyMHGRx+Fdp4bRYfC2mJENq/ZYzj3K5P6mvrcfBvDrm6uL37Lp238z5ylFTq6dPLtK/z2PN9Ei09lsbTV7lrW9t7kAWdnZn7UZd333kIJ9+OMV6033jSfxbsDdjGcc0V4VGl7NWPosbjPrUlK1t+vftovxu/MKKKK2OAKKKKACiiigAooooAKKKKACiiigAooooAKKKKACiiigAooooAbCPMuy38MQwPqf8A6386muZDHbsV+8flX6mmWP8Ax757l2J/Om3XNxAD0yxx74oGIiCONVHQDFOoooEFRS8yovplv6f1qWoHP76Q+iDH60AOg/1Zb+8xNS0yIYhTH90U+gBsrbImbuBxUMa4kjXsi5/p/jT5/wDVj/eX+dEX+uk+g/rQBLRRRQAzzU37N3zU+qo+6vvL/wCzVaoARmCqSxwB3NCsHXKkEeoqOfrH/v8A9DRB1k/3/wCgoAlooooAKKKKACiiigCOc4t3x12nFWmzHAdi7iq8D14qrN/q/wDgS/zFZni13is7eaGSSOSN3KsjlcHy29KAPPb7WdRup3nu7rTGW6KP9hmsMGTEpUJuzuYjHNeqXeAqLGMBYmKjGMdAP514n4J8T6xqni6wh1K9a7T7TtAmRXIGexIyPrXtt1/x8D6J/wCh0AWmIihJxkIv8hXlosrvW5ZdUt/DrzW15KzSR2eseWrrnGXiIIJOOcEZzXqboskbJIAysCGB7iuE1HwxpOl61ayadatakXEfEMzqvLDPyhsH8qEB2bRpFJBDEoVI0O1R0A4ApycyOfoP8/nSP/x+H/rmP5mli/j/AN6sqnQqPUdJ/q2+hpq/dH0pz/6tvoaav3B9KUPiG9iOdmXYEbbuODx7Uz95/wA9m/If4U646xf7/wDQ0lbECYk/57P+S/4UUtFAH//Z;movable=0;resizable=0;rotatable=0;deletable=0;editable=0;locked=1;connectable=0;" parent="1" vertex="1">
          <mxGeometry x="80" y="110" width="719.23" height="821.36" as="geometry" />
        </mxCell>
        <mxCell id="xk9ZMzFindOeEumncWzH-2" value="4" style="rounded=0;whiteSpace=wrap;html=1;fillColor=#9999FF;strokeColor=default;" parent="1" vertex="1">
          <mxGeometry x="400" y="300" width="100" height="80" as="geometry" />
        </mxCell>
        <mxCell id="xk9ZMzFindOeEumncWzH-3" value="7" style="rounded=0;whiteSpace=wrap;html=1;fillColor=#9999FF;strokeColor=default;" parent="1" vertex="1">
          <mxGeometry x="180" y="460" width="70" height="170" as="geometry" />
        </mxCell>
        <mxCell id="xk9ZMzFindOeEumncWzH-5" value="5" style="rounded=0;whiteSpace=wrap;html=1;fillColor=#9999FF;strokeColor=default;" parent="1" vertex="1">
          <mxGeometry x="300" y="600" width="50" height="80" as="geometry" />
        </mxCell>
        <mxCell id="xk9ZMzFindOeEumncWzH-6" value="3" style="rounded=0;whiteSpace=wrap;html=1;fillColor=#9999FF;strokeColor=default;" parent="1" vertex="1">
          <mxGeometry x="400" y="590" width="50" height="190" as="geometry" />
        </mxCell>
        <mxCell id="xk9ZMzFindOeEumncWzH-7" value="6" style="rounded=0;whiteSpace=wrap;html=1;fillColor=#9999FF;strokeColor=default;" parent="1" vertex="1">
          <mxGeometry x="250" y="260" width="70" height="140" as="geometry" />
        </mxCell>
        <mxCell id="xk9ZMzFindOeEumncWzH-8" value="1" style="rounded=0;whiteSpace=wrap;html=1;fillColor=#9999FF;strokeColor=default;" parent="1" vertex="1">
          <mxGeometry x="490" y="630" width="70" height="180" as="geometry" />
        </mxCell>
        <mxCell id="xk9ZMzFindOeEumncWzH-9" value="2" style="rounded=0;whiteSpace=wrap;html=1;fillColor=#9999FF;strokeColor=default;" parent="1" vertex="1">
          <mxGeometry x="510" y="390" width="70" height="40" as="geometry" />
        </mxCell>
        <mxCell id="xk9ZMzFindOeEumncWzH-10" value="0" style="rounded=0;whiteSpace=wrap;html=1;fillColor=#9999FF;strokeColor=default;" parent="1" vertex="1">
          <mxGeometry x="460" y="480" width="70" height="40" as="geometry" />
        </mxCell>
        <mxCell id="xk9ZMzFindOeEumncWzH-11" value="10" style="rounded=0;whiteSpace=wrap;html=1;fillColor=#9999FF;strokeColor=default;" parent="1" vertex="1">
          <mxGeometry x="590" y="290" width="70" height="40" as="geometry" />
        </mxCell>
        <mxCell id="xk9ZMzFindOeEumncWzH-13" value="11" style="rounded=0;whiteSpace=wrap;html=1;fillColor=#9999FF;strokeColor=#000000;" parent="1" vertex="1">
          <mxGeometry x="640" y="600" width="70" height="40" as="geometry" />
        </mxCell>
        <mxCell id="xk9ZMzFindOeEumncWzH-12" value="12" style="rounded=0;whiteSpace=wrap;html=1;fillColor=#9999FF;strokeColor=default;" parent="1" vertex="1">
          <mxGeometry x="610" y="870" width="70" height="40" as="geometry" />
        </mxCell>
        <mxCell id="xk9ZMzFindOeEumncWzH-4" value="8" style="rounded=0;whiteSpace=wrap;html=1;fillColor=#9999FF;strokeColor=default;" parent="1" vertex="1">
          <mxGeometry x="300" y="490" width="70" height="70" as="geometry" />
        </mxCell>
        <mxCell id="xk9ZMzFindOeEumncWzH-18" value="24" style="ellipse;whiteSpace=wrap;html=1;aspect=fixed;fillColor=#99FF99;" parent="1" vertex="1">
          <mxGeometry x="550" y="580" width="30" height="30" as="geometry" />
        </mxCell>
        <mxCell id="xk9ZMzFindOeEumncWzH-19" value="25" style="ellipse;whiteSpace=wrap;html=1;aspect=fixed;fillColor=#99FF99;" parent="1" vertex="1">
          <mxGeometry x="460" y="530" width="30" height="30" as="geometry" />
        </mxCell>
        <mxCell id="xk9ZMzFindOeEumncWzH-20" value="30" style="ellipse;whiteSpace=wrap;html=1;aspect=fixed;fillColor=#99FF99;" parent="1" vertex="1">
          <mxGeometry x="540" y="470" width="30" height="30" as="geometry" />
        </mxCell>
        <mxCell id="xk9ZMzFindOeEumncWzH-21" value="27" style="ellipse;whiteSpace=wrap;html=1;aspect=fixed;fillColor=#99FF99;" parent="1" vertex="1">
          <mxGeometry x="340" y="440" width="30" height="30" as="geometry" />
        </mxCell>
        <mxCell id="xk9ZMzFindOeEumncWzH-22" value="29" style="ellipse;whiteSpace=wrap;html=1;aspect=fixed;fillColor=#99FF99;" parent="1" vertex="1">
          <mxGeometry x="340" y="360" width="30" height="30" as="geometry" />
        </mxCell>
        <mxCell id="xk9ZMzFindOeEumncWzH-23" value="16" style="ellipse;whiteSpace=wrap;html=1;aspect=fixed;fillColor=#f8cecc;strokeColor=#b85450;" parent="1" vertex="1">
          <mxGeometry x="200" y="370" width="30" height="30" as="geometry" />
        </mxCell>
        <mxCell id="xk9ZMzFindOeEumncWzH-24" value="17" style="ellipse;whiteSpace=wrap;html=1;aspect=fixed;fillColor=#99FF99;" parent="1" vertex="1">
          <mxGeometry x="130" y="460" width="30" height="30" as="geometry" />
        </mxCell>
        <mxCell id="xk9ZMzFindOeEumncWzH-25" value="23" style="ellipse;whiteSpace=wrap;html=1;aspect=fixed;fillColor=#f8cecc;strokeColor=#b85450;" parent="1" vertex="1">
          <mxGeometry x="260" y="565" width="30" height="30" as="geometry" />
        </mxCell>
        <mxCell id="xk9ZMzFindOeEumncWzH-26" value="26" style="ellipse;whiteSpace=wrap;html=1;aspect=fixed;fillColor=#99FF99;" parent="1" vertex="1">
          <mxGeometry x="400" y="500" width="30" height="30" as="geometry" />
        </mxCell>
        <mxCell id="xk9ZMzFindOeEumncWzH-27" value="28" style="ellipse;whiteSpace=wrap;html=1;aspect=fixed;fillColor=#99FF99;" parent="1" vertex="1">
          <mxGeometry x="280" y="430" width="30" height="30" as="geometry" />
        </mxCell>
        <mxCell id="xk9ZMzFindOeEumncWzH-28" value="40m" style="endArrow=none;html=1;rounded=0;" parent="1" source="xk9ZMzFindOeEumncWzH-19" target="xk9ZMzFindOeEumncWzH-18" edge="1">
          <mxGeometry width="50" height="50" relative="1" as="geometry">
            <mxPoint x="340" y="550" as="sourcePoint" />
            <mxPoint x="390" y="500" as="targetPoint" />
          </mxGeometry>
        </mxCell>
        <mxCell id="xk9ZMzFindOeEumncWzH-29" value="10m" style="endArrow=none;html=1;rounded=0;" parent="1" source="xk9ZMzFindOeEumncWzH-26" target="xk9ZMzFindOeEumncWzH-19" edge="1">
          <mxGeometry width="50" height="50" relative="1" as="geometry">
            <mxPoint x="498" y="562" as="sourcePoint" />
            <mxPoint x="562" y="598" as="targetPoint" />
          </mxGeometry>
        </mxCell>
        <mxCell id="xk9ZMzFindOeEumncWzH-30" value="62m" style="endArrow=none;html=1;rounded=0;" parent="1" source="xk9ZMzFindOeEumncWzH-20" target="xk9ZMzFindOeEumncWzH-18" edge="1">
          <mxGeometry width="50" height="50" relative="1" as="geometry">
            <mxPoint x="508" y="572" as="sourcePoint" />
            <mxPoint x="572" y="608" as="targetPoint" />
          </mxGeometry>
        </mxCell>
        <mxCell id="xk9ZMzFindOeEumncWzH-31" value="15m" style="endArrow=none;html=1;rounded=0;" parent="1" source="xk9ZMzFindOeEumncWzH-21" target="xk9ZMzFindOeEumncWzH-26" edge="1">
          <mxGeometry width="50" height="50" relative="1" as="geometry">
            <mxPoint x="518" y="582" as="sourcePoint" />
            <mxPoint x="582" y="618" as="targetPoint" />
          </mxGeometry>
        </mxCell>
        <mxCell id="xk9ZMzFindOeEumncWzH-32" value="45m" style="endArrow=none;html=1;rounded=0;" parent="1" source="xk9ZMzFindOeEumncWzH-22" target="xk9ZMzFindOeEumncWzH-21" edge="1">
          <mxGeometry width="50" height="50" relative="1" as="geometry">
            <mxPoint x="528" y="592" as="sourcePoint" />
            <mxPoint x="592" y="628" as="targetPoint" />
          </mxGeometry>
        </mxCell>
        <mxCell id="xk9ZMzFindOeEumncWzH-33" value="68m" style="endArrow=none;html=1;rounded=0;" parent="1" source="xk9ZMzFindOeEumncWzH-2" target="xk9ZMzFindOeEumncWzH-21" edge="1">
          <mxGeometry width="50" height="50" relative="1" as="geometry">
            <mxPoint x="538" y="602" as="sourcePoint" />
            <mxPoint x="602" y="638" as="targetPoint" />
          </mxGeometry>
        </mxCell>
        <mxCell id="xk9ZMzFindOeEumncWzH-34" value="10m" style="endArrow=none;html=1;rounded=0;" parent="1" source="xk9ZMzFindOeEumncWzH-27" target="xk9ZMzFindOeEumncWzH-21" edge="1">
          <mxGeometry width="50" height="50" relative="1" as="geometry">
            <mxPoint x="548" y="612" as="sourcePoint" />
            <mxPoint x="612" y="648" as="targetPoint" />
          </mxGeometry>
        </mxCell>
        <mxCell id="xk9ZMzFindOeEumncWzH-35" value="60m" style="endArrow=none;html=1;rounded=0;" parent="1" source="xk9ZMzFindOeEumncWzH-25" target="xk9ZMzFindOeEumncWzH-27" edge="1">
          <mxGeometry width="50" height="50" relative="1" as="geometry">
            <mxPoint x="558" y="622" as="sourcePoint" />
            <mxPoint x="622" y="658" as="targetPoint" />
          </mxGeometry>
        </mxCell>
        <mxCell id="xk9ZMzFindOeEumncWzH-36" value="35m" style="endArrow=none;html=1;rounded=0;" parent="1" source="xk9ZMzFindOeEumncWzH-23" target="xk9ZMzFindOeEumncWzH-27" edge="1">
          <mxGeometry width="50" height="50" relative="1" as="geometry">
            <mxPoint x="568" y="632" as="sourcePoint" />
            <mxPoint x="632" y="668" as="targetPoint" />
          </mxGeometry>
        </mxCell>
        <mxCell id="xk9ZMzFindOeEumncWzH-37" value="40m" style="endArrow=none;html=1;rounded=0;" parent="1" source="xk9ZMzFindOeEumncWzH-24" target="xk9ZMzFindOeEumncWzH-23" edge="1">
          <mxGeometry width="50" height="50" relative="1" as="geometry">
            <mxPoint x="578" y="642" as="sourcePoint" />
            <mxPoint x="642" y="678" as="targetPoint" />
          </mxGeometry>
        </mxCell>
        <mxCell id="xk9ZMzFindOeEumncWzH-38" value="10m" style="endArrow=none;html=1;rounded=0;entryX=0.75;entryY=0;entryDx=0;entryDy=0;" parent="1" source="xk9ZMzFindOeEumncWzH-19" target="xk9ZMzFindOeEumncWzH-6" edge="1">
          <mxGeometry width="50" height="50" relative="1" as="geometry">
            <mxPoint x="588" y="652" as="sourcePoint" />
            <mxPoint x="652" y="688" as="targetPoint" />
          </mxGeometry>
        </mxCell>
        <mxCell id="xk9ZMzFindOeEumncWzH-39" value="10m" style="endArrow=none;html=1;rounded=0;entryX=0.5;entryY=0;entryDx=0;entryDy=0;" parent="1" source="xk9ZMzFindOeEumncWzH-26" target="xk9ZMzFindOeEumncWzH-6" edge="1">
          <mxGeometry width="50" height="50" relative="1" as="geometry">
            <mxPoint x="598" y="662" as="sourcePoint" />
            <mxPoint x="662" y="698" as="targetPoint" />
          </mxGeometry>
        </mxCell>
        <mxCell id="xk9ZMzFindOeEumncWzH-40" value="5m" style="endArrow=none;html=1;rounded=0;" parent="1" source="xk9ZMzFindOeEumncWzH-19" target="xk9ZMzFindOeEumncWzH-10" edge="1">
          <mxGeometry width="50" height="50" relative="1" as="geometry">
            <mxPoint x="608" y="672" as="sourcePoint" />
            <mxPoint x="672" y="708" as="targetPoint" />
          </mxGeometry>
        </mxCell>
        <mxCell id="xk9ZMzFindOeEumncWzH-41" value="64m" style="endArrow=none;html=1;rounded=0;" parent="1" source="xk9ZMzFindOeEumncWzH-18" target="xk9ZMzFindOeEumncWzH-13" edge="1">
          <mxGeometry width="50" height="50" relative="1" as="geometry">
            <mxPoint x="618" y="682" as="sourcePoint" />
            <mxPoint x="682" y="718" as="targetPoint" />
          </mxGeometry>
        </mxCell>
        <mxCell id="xk9ZMzFindOeEumncWzH-42" value="2m" style="endArrow=none;html=1;rounded=0;" parent="1" source="xk9ZMzFindOeEumncWzH-10" target="xk9ZMzFindOeEumncWzH-20" edge="1">
          <mxGeometry x="0.0612" width="50" height="50" relative="1" as="geometry">
            <mxPoint x="628" y="692" as="sourcePoint" />
            <mxPoint x="692" y="728" as="targetPoint" />
            <mxPoint as="offset" />
          </mxGeometry>
        </mxCell>
        <mxCell id="xk9ZMzFindOeEumncWzH-43" value="10m" style="endArrow=none;html=1;rounded=0;" parent="1" source="xk9ZMzFindOeEumncWzH-9" target="xk9ZMzFindOeEumncWzH-20" edge="1">
          <mxGeometry width="50" height="50" relative="1" as="geometry">
            <mxPoint x="638" y="702" as="sourcePoint" />
            <mxPoint x="702" y="738" as="targetPoint" />
          </mxGeometry>
        </mxCell>
        <mxCell id="xk9ZMzFindOeEumncWzH-46" value="" style="endArrow=none;html=1;rounded=0;" parent="1" source="xk9ZMzFindOeEumncWzH-24" target="xk9ZMzFindOeEumncWzH-3" edge="1">
          <mxGeometry width="50" height="50" relative="1" as="geometry">
            <mxPoint x="668" y="732" as="sourcePoint" />
            <mxPoint x="732" y="768" as="targetPoint" />
          </mxGeometry>
        </mxCell>
        <mxCell id="xk9ZMzFindOeEumncWzH-48" value="28m" style="endArrow=none;html=1;rounded=0;" parent="1" source="xk9ZMzFindOeEumncWzH-27" target="xk9ZMzFindOeEumncWzH-3" edge="1">
          <mxGeometry width="50" height="50" relative="1" as="geometry">
            <mxPoint x="688" y="752" as="sourcePoint" />
            <mxPoint x="752" y="788" as="targetPoint" />
          </mxGeometry>
        </mxCell>
        <mxCell id="xk9ZMzFindOeEumncWzH-49" value="5m" style="endArrow=none;html=1;rounded=0;" parent="1" source="xk9ZMzFindOeEumncWzH-25" target="xk9ZMzFindOeEumncWzH-4" edge="1">
          <mxGeometry width="50" height="50" relative="1" as="geometry">
            <mxPoint x="698" y="762" as="sourcePoint" />
            <mxPoint x="762" y="798" as="targetPoint" />
          </mxGeometry>
        </mxCell>
        <mxCell id="xk9ZMzFindOeEumncWzH-51" value="9" style="rounded=0;whiteSpace=wrap;html=1;fillColor=#9999FF;strokeColor=default;" parent="1" vertex="1">
          <mxGeometry x="310" y="565" width="50" height="30" as="geometry" />
        </mxCell>
        <mxCell id="xk9ZMzFindOeEumncWzH-53" value="5m" style="endArrow=none;html=1;rounded=0;" parent="1" source="xk9ZMzFindOeEumncWzH-25" target="xk9ZMzFindOeEumncWzH-51" edge="1">
          <mxGeometry width="50" height="50" relative="1" as="geometry">
            <mxPoint x="288" y="545" as="sourcePoint" />
            <mxPoint x="302" y="470" as="targetPoint" />
          </mxGeometry>
        </mxCell>
        <mxCell id="xk9ZMzFindOeEumncWzH-54" value="5m" style="endArrow=none;html=1;rounded=0;" parent="1" source="xk9ZMzFindOeEumncWzH-4" target="xk9ZMzFindOeEumncWzH-21" edge="1">
          <mxGeometry width="50" height="50" relative="1" as="geometry">
            <mxPoint x="298" y="555" as="sourcePoint" />
            <mxPoint x="312" y="480" as="targetPoint" />
          </mxGeometry>
        </mxCell>
        <mxCell id="xk9ZMzFindOeEumncWzH-56" value="19" style="ellipse;whiteSpace=wrap;html=1;aspect=fixed;fillColor=#99FF99;" parent="1" vertex="1">
          <mxGeometry x="260" y="710" width="30" height="30" as="geometry" />
        </mxCell>
        <mxCell id="xk9ZMzFindOeEumncWzH-57" value="20" style="ellipse;whiteSpace=wrap;html=1;aspect=fixed;fillColor=#f8cecc;strokeColor=#b85450;" parent="1" vertex="1">
          <mxGeometry x="510" y="830" width="30" height="30" as="geometry" />
        </mxCell>
        <mxCell id="xk9ZMzFindOeEumncWzH-58" value="43m" style="endArrow=none;html=1;rounded=0;" parent="1" source="xk9ZMzFindOeEumncWzH-56" target="xk9ZMzFindOeEumncWzH-25" edge="1">
          <mxGeometry width="50" height="50" relative="1" as="geometry">
            <mxPoint x="300" y="590" as="sourcePoint" />
            <mxPoint x="320" y="590" as="targetPoint" />
          </mxGeometry>
        </mxCell>
        <mxCell id="xk9ZMzFindOeEumncWzH-59" value="120m" style="endArrow=none;html=1;rounded=0;" parent="1" source="xk9ZMzFindOeEumncWzH-57" target="xk9ZMzFindOeEumncWzH-56" edge="1">
          <mxGeometry width="50" height="50" relative="1" as="geometry">
            <mxPoint x="285" y="720" as="sourcePoint" />
            <mxPoint x="285" y="605" as="targetPoint" />
          </mxGeometry>
        </mxCell>
        <mxCell id="xk9ZMzFindOeEumncWzH-61" value="18" style="ellipse;whiteSpace=wrap;html=1;aspect=fixed;fillColor=#99FF99;" parent="1" vertex="1">
          <mxGeometry x="140" y="630" width="30" height="30" as="geometry" />
        </mxCell>
        <mxCell id="xk9ZMzFindOeEumncWzH-62" value="54m" style="endArrow=none;html=1;rounded=0;" parent="1" source="xk9ZMzFindOeEumncWzH-56" target="xk9ZMzFindOeEumncWzH-61" edge="1">
          <mxGeometry width="50" height="50" relative="1" as="geometry">
            <mxPoint x="285" y="720" as="sourcePoint" />
            <mxPoint x="285" y="605" as="targetPoint" />
          </mxGeometry>
        </mxCell>
        <mxCell id="xk9ZMzFindOeEumncWzH-63" value="62m" style="endArrow=none;html=1;rounded=0;" parent="1" source="xk9ZMzFindOeEumncWzH-61" target="xk9ZMzFindOeEumncWzH-24" edge="1">
          <mxGeometry width="50" height="50" relative="1" as="geometry">
            <mxPoint x="273" y="727" as="sourcePoint" />
            <mxPoint x="177" y="663" as="targetPoint" />
          </mxGeometry>
        </mxCell>
        <mxCell id="xk9ZMzFindOeEumncWzH-64" value="5m" style="endArrow=none;html=1;rounded=0;" parent="1" source="xk9ZMzFindOeEumncWzH-57" target="xk9ZMzFindOeEumncWzH-8" edge="1">
          <mxGeometry width="50" height="50" relative="1" as="geometry">
            <mxPoint x="283" y="737" as="sourcePoint" />
            <mxPoint x="187" y="673" as="targetPoint" />
          </mxGeometry>
        </mxCell>
        <mxCell id="xk9ZMzFindOeEumncWzH-65" value="21" style="ellipse;whiteSpace=wrap;html=1;aspect=fixed;fillColor=#f8cecc;strokeColor=#b85450;" parent="1" vertex="1">
          <mxGeometry x="590" y="750" width="30" height="30" as="geometry" />
        </mxCell>
        <mxCell id="xk9ZMzFindOeEumncWzH-66" value="60m" style="endArrow=none;html=1;rounded=0;" parent="1" source="xk9ZMzFindOeEumncWzH-57" target="xk9ZMzFindOeEumncWzH-65" edge="1">
          <mxGeometry width="50" height="50" relative="1" as="geometry">
            <mxPoint x="535" y="840" as="sourcePoint" />
            <mxPoint x="535" y="820" as="targetPoint" />
          </mxGeometry>
        </mxCell>
        <mxCell id="xk9ZMzFindOeEumncWzH-67" value="85m" style="endArrow=none;html=1;rounded=0;" parent="1" source="xk9ZMzFindOeEumncWzH-18" target="xk9ZMzFindOeEumncWzH-65" edge="1">
          <mxGeometry width="50" height="50" relative="1" as="geometry">
            <mxPoint x="632" y="660" as="sourcePoint" />
            <mxPoint x="640" y="740" as="targetPoint" />
          </mxGeometry>
        </mxCell>
        <mxCell id="xk9ZMzFindOeEumncWzH-68" value="55m" style="endArrow=none;html=1;rounded=0;" parent="1" source="xk9ZMzFindOeEumncWzH-12" target="xk9ZMzFindOeEumncWzH-65" edge="1">
          <mxGeometry width="50" height="50" relative="1" as="geometry">
            <mxPoint x="578" y="620" as="sourcePoint" />
            <mxPoint x="612" y="780" as="targetPoint" />
          </mxGeometry>
        </mxCell>
        <mxCell id="xk9ZMzFindOeEumncWzH-69" value="31" style="ellipse;whiteSpace=wrap;html=1;aspect=fixed;fillColor=#f8cecc;strokeColor=#b85450;" parent="1" vertex="1">
          <mxGeometry x="630" y="480" width="30" height="30" as="geometry" />
        </mxCell>
        <mxCell id="xk9ZMzFindOeEumncWzH-70" value="62m" style="endArrow=none;html=1;rounded=0;" parent="1" source="xk9ZMzFindOeEumncWzH-69" target="xk9ZMzFindOeEumncWzH-18" edge="1">
          <mxGeometry width="50" height="50" relative="1" as="geometry">
            <mxPoint x="566" y="510" as="sourcePoint" />
            <mxPoint x="574" y="590" as="targetPoint" />
          </mxGeometry>
        </mxCell>
        <mxCell id="xk9ZMzFindOeEumncWzH-72" value="77m" style="endArrow=none;html=1;rounded=0;" parent="1" source="xk9ZMzFindOeEumncWzH-69" target="xk9ZMzFindOeEumncWzH-11" edge="1">
          <mxGeometry width="50" height="50" relative="1" as="geometry">
            <mxPoint x="646" y="517" as="sourcePoint" />
            <mxPoint x="584" y="593" as="targetPoint" />
          </mxGeometry>
        </mxCell>
        <mxCell id="xk9ZMzFindOeEumncWzH-73" value="32" style="ellipse;whiteSpace=wrap;html=1;aspect=fixed;fillColor=#99FF99;" parent="1" vertex="1">
          <mxGeometry x="530" y="330" width="30" height="30" as="geometry" />
        </mxCell>
        <mxCell id="xk9ZMzFindOeEumncWzH-74" value="13" style="ellipse;whiteSpace=wrap;html=1;aspect=fixed;fillColor=#f8cecc;strokeColor=#b85450;" parent="1" vertex="1">
          <mxGeometry x="480" y="200" width="30" height="30" as="geometry" />
        </mxCell>
        <mxCell id="xk9ZMzFindOeEumncWzH-75" value="41m" style="endArrow=none;html=1;rounded=0;" parent="1" source="xk9ZMzFindOeEumncWzH-11" target="xk9ZMzFindOeEumncWzH-73" edge="1">
          <mxGeometry width="50" height="50" relative="1" as="geometry">
            <mxPoint x="653" y="490" as="sourcePoint" />
            <mxPoint x="637" y="340" as="targetPoint" />
          </mxGeometry>
        </mxCell>
        <mxCell id="xk9ZMzFindOeEumncWzH-76" value="40m" style="endArrow=none;html=1;rounded=0;" parent="1" source="xk9ZMzFindOeEumncWzH-73" target="xk9ZMzFindOeEumncWzH-2" edge="1">
          <mxGeometry width="50" height="50" relative="1" as="geometry">
            <mxPoint x="663" y="500" as="sourcePoint" />
            <mxPoint x="647" y="350" as="targetPoint" />
          </mxGeometry>
        </mxCell>
        <mxCell id="xk9ZMzFindOeEumncWzH-77" value="26m" style="endArrow=none;html=1;rounded=0;" parent="1" source="xk9ZMzFindOeEumncWzH-9" target="xk9ZMzFindOeEumncWzH-73" edge="1">
          <mxGeometry width="50" height="50" relative="1" as="geometry">
            <mxPoint x="673" y="510" as="sourcePoint" />
            <mxPoint x="657" y="360" as="targetPoint" />
          </mxGeometry>
        </mxCell>
        <mxCell id="xk9ZMzFindOeEumncWzH-78" value="70m" style="endArrow=none;html=1;rounded=0;" parent="1" source="xk9ZMzFindOeEumncWzH-11" target="xk9ZMzFindOeEumncWzH-74" edge="1">
          <mxGeometry width="50" height="50" relative="1" as="geometry">
            <mxPoint x="653" y="490" as="sourcePoint" />
            <mxPoint x="637" y="340" as="targetPoint" />
          </mxGeometry>
        </mxCell>
        <mxCell id="xk9ZMzFindOeEumncWzH-79" value="60m" style="endArrow=none;html=1;rounded=0;exitX=1;exitY=0.5;exitDx=0;exitDy=0;" parent="1" source="xk9ZMzFindOeEumncWzH-80" target="xk9ZMzFindOeEumncWzH-74" edge="1">
          <mxGeometry width="50" height="50" relative="1" as="geometry">
            <mxPoint x="880.8333333333334" y="340" as="sourcePoint" />
            <mxPoint x="647" y="350" as="targetPoint" />
          </mxGeometry>
        </mxCell>
        <mxCell id="xk9ZMzFindOeEumncWzH-80" value="14" style="ellipse;whiteSpace=wrap;html=1;aspect=fixed;fillColor=#f8cecc;strokeColor=#b85450;" parent="1" vertex="1">
          <mxGeometry x="350" y="200" width="30" height="30" as="geometry" />
        </mxCell>
        <mxCell id="xk9ZMzFindOeEumncWzH-81" value="70m" style="endArrow=none;html=1;rounded=0;" parent="1" source="xk9ZMzFindOeEumncWzH-23" target="xk9ZMzFindOeEumncWzH-86" edge="1">
          <mxGeometry width="50" height="50" relative="1" as="geometry">
            <mxPoint x="280" y="225" as="sourcePoint" />
            <mxPoint x="490" y="225" as="targetPoint" />
          </mxGeometry>
        </mxCell>
        <mxCell id="xk9ZMzFindOeEumncWzH-82" value="10m" style="endArrow=none;html=1;rounded=0;" parent="1" target="xk9ZMzFindOeEumncWzH-7" edge="1">
          <mxGeometry width="50" height="50" relative="1" as="geometry">
            <mxPoint x="342" y="367" as="sourcePoint" />
            <mxPoint x="569" y="349" as="targetPoint" />
          </mxGeometry>
        </mxCell>
        <mxCell id="xk9ZMzFindOeEumncWzH-83" value="22" style="ellipse;whiteSpace=wrap;html=1;aspect=fixed;fillColor=#f8cecc;strokeColor=#b85450;" parent="1" vertex="1">
          <mxGeometry x="350" y="690" width="30" height="30" as="geometry" />
        </mxCell>
        <mxCell id="xk9ZMzFindOeEumncWzH-84" value="50m" style="endArrow=none;html=1;rounded=0;" parent="1" source="xk9ZMzFindOeEumncWzH-56" target="xk9ZMzFindOeEumncWzH-83" edge="1">
          <mxGeometry x="0.0106" width="50" height="50" relative="1" as="geometry">
            <mxPoint x="521" y="849" as="sourcePoint" />
            <mxPoint x="299" y="741" as="targetPoint" />
            <mxPoint as="offset" />
          </mxGeometry>
        </mxCell>
        <mxCell id="xk9ZMzFindOeEumncWzH-85" value="85m" style="endArrow=none;html=1;rounded=0;" parent="1" source="xk9ZMzFindOeEumncWzH-83" target="xk9ZMzFindOeEumncWzH-26" edge="1">
          <mxGeometry width="50" height="50" relative="1" as="geometry">
            <mxPoint x="300" y="732" as="sourcePoint" />
            <mxPoint x="360" y="718" as="targetPoint" />
          </mxGeometry>
        </mxCell>
        <mxCell id="xk9ZMzFindOeEumncWzH-86" value="15" style="ellipse;whiteSpace=wrap;html=1;aspect=fixed;fillColor=#99FF99;" parent="1" vertex="1">
          <mxGeometry x="220" y="210" width="30" height="30" as="geometry" />
        </mxCell>
        <mxCell id="xk9ZMzFindOeEumncWzH-87" value="63m" style="endArrow=none;html=1;rounded=0;" parent="1" source="xk9ZMzFindOeEumncWzH-86" target="xk9ZMzFindOeEumncWzH-80" edge="1">
          <mxGeometry width="50" height="50" relative="1" as="geometry">
            <mxPoint x="227" y="380" as="sourcePoint" />
            <mxPoint x="243" y="250" as="targetPoint" />
          </mxGeometry>
        </mxCell>
        <mxCell id="xk9ZMzFindOeEumncWzH-88" value="68m" style="endArrow=none;html=1;rounded=0;" parent="1" source="xk9ZMzFindOeEumncWzH-22" target="xk9ZMzFindOeEumncWzH-80" edge="1">
          <mxGeometry width="50" height="50" relative="1" as="geometry">
            <mxPoint x="237" y="390" as="sourcePoint" />
            <mxPoint x="253" y="260" as="targetPoint" />
          </mxGeometry>
        </mxCell>
        <mxCell id="xk9ZMzFindOeEumncWzH-89" value="36m" style="endArrow=none;html=1;rounded=0;entryX=1;entryY=0.25;entryDx=0;entryDy=0;" parent="1" source="xk9ZMzFindOeEumncWzH-25" target="xk9ZMzFindOeEumncWzH-3" edge="1">
          <mxGeometry width="50" height="50" relative="1" as="geometry">
            <mxPoint x="287" y="575" as="sourcePoint" />
            <mxPoint x="303" y="470" as="targetPoint" />
          </mxGeometry>
        </mxCell>
        <mxCell id="xk9ZMzFindOeEumncWzH-90" value="35m" style="endArrow=none;html=1;rounded=0;" parent="1" source="xk9ZMzFindOeEumncWzH-19" target="xk9ZMzFindOeEumncWzH-8" edge="1">
          <mxGeometry width="50" height="50" relative="1" as="geometry">
            <mxPoint x="498" y="562" as="sourcePoint" />
            <mxPoint x="562" y="598" as="targetPoint" />
          </mxGeometry>
        </mxCell>
      </root>
    </mxGraphModel>
  </diagram>
</mxfile>
